<svg width="185" height="200" viewBox="0 0 185 200" fill="none" xmlns="http://www.w3.org/2000/svg">
<path d="M0 36.1898C0 35.4664 0.407611 34.8048 1.05368 34.4795L63.4257 3.07245C69.8494 -0.162197 77.3304 -0.574379 84.0706 1.93497L182.838 38.7056C183.588 38.9847 184.085 39.7003 184.085 40.5002V153.169C184.085 158.386 181.058 163.129 176.327 165.326L106.938 197.553C100.693 200.453 93.5487 200.743 87.0897 198.356L13.7639 171.265C5.49251 168.209 0 160.325 0 151.507V36.1898Z" fill="white"/>
<path d="M67.1254 6.47553C72.0993 4.01483 77.8721 3.73136 83.0632 5.69292L175.424 40.5931C175.821 40.7428 175.837 41.2973 175.451 41.4709L107.676 71.9204C107.563 71.9712 107.435 71.9758 107.319 71.9333L9.11087 36.0719C8.71844 35.9286 8.68871 35.385 9.06317 35.1998L67.1254 6.47553Z" fill="#222222"/>
<path d="M4 42.2654C4 42.1359 4.12833 42.0456 4.25018 42.0893L104.876 78.178C104.95 78.2046 105 78.2751 105 78.354V184.921C105 192.05 97.9248 197.018 91.2196 194.597L17.5873 168.012C9.43366 165.068 4 157.329 4 148.66V42.2654Z" fill="#222222"/>
<path d="M45.1854 158.557V152.03L49.1397 153.469V159.996L45.1854 158.557ZM45.1854 112.555V106L49.1397 107.439V113.994L45.1854 112.555ZM47.6333 154.667C45.0689 153.734 42.7555 152.405 40.6932 150.681C38.6489 148.964 36.9542 146.973 35.6092 144.709C34.2822 142.451 33.4125 140.035 33 137.461L36.8466 138.146C37.4384 140.995 38.7116 143.548 40.6663 145.805C42.639 148.05 45.0151 149.678 47.7947 150.689C50.6102 151.714 52.8876 151.818 54.6271 151.001C56.3666 150.164 57.2364 148.563 57.2364 146.197C57.2364 144.441 56.7522 142.862 55.7838 141.46C54.8154 140.058 53.1746 138.564 50.8612 136.977L42.2534 130.982C37.0528 127.352 34.4526 123.124 34.4526 118.295C34.4526 116.043 34.9726 114.258 36.0127 112.938C37.0708 111.605 38.5323 110.801 40.3973 110.526C42.2803 110.257 44.4771 110.589 46.9877 111.522C49.4445 112.416 51.6413 113.712 53.5781 115.409C55.5328 117.094 57.1378 119.062 58.3931 121.312C59.6484 123.563 60.4823 125.995 60.8947 128.607L56.9405 127.969C56.6894 126.122 56.1066 124.373 55.192 122.724C54.2954 121.081 53.1387 119.639 51.722 118.398C50.3053 117.138 48.7272 116.182 46.9877 115.53C45.3379 114.929 43.8674 114.699 42.5762 114.84C41.285 114.981 40.2629 115.458 39.5097 116.271C38.7744 117.073 38.4068 118.17 38.4068 119.563C38.4068 121.09 38.9179 122.573 39.9401 124.014C40.9802 125.442 42.621 126.927 44.8627 128.468L52.26 133.536C55.3803 135.664 57.6309 137.819 59.0118 140.001C60.3926 142.183 61.083 144.677 61.083 147.482C61.083 149.906 60.5271 151.822 59.4152 153.23C58.3034 154.638 56.7343 155.479 54.7078 155.753C52.6994 156.015 50.3412 155.653 47.6333 154.667Z" fill="white"/>
<path d="M39 49.9996L60.1353 58.1655V88.4273L49.0873 78.8204L39 80.2614V49.9996Z" fill="white"/>
<path d="M43 55.9996L56.5 60.9996V80.4996L49.2045 74.9841L43 75.8841V55.9996Z" fill="#222222"/>
<path d="M36 50.3158L110.933 11.9996L132.05 19.7968L57.6156 58.113L36 50.3158Z" fill="white"/>
<path d="M45.9499 49.3705L111.078 16.0682L122.312 20.3175L57.617 53.6198L45.9499 49.3705Z" fill="#222222"/>
<path d="M97.6798 82.7476C97.101 81.9087 96.8792 80.8742 97.0631 79.8718L100.132 63.1501C100.538 60.9332 102.757 59.5408 104.93 60.1384L119.823 64.234C120.695 64.4737 121.454 65.0129 121.967 65.757L139.397 91.1672C140.602 92.9141 140.163 95.3073 138.416 96.5125L120.345 108.98C118.598 110.186 116.205 109.746 115 108L97.6798 82.7476Z" fill="#222222"/>
<path d="M100.451 82.8147C99.8724 81.9758 99.6506 80.9413 99.8346 79.9389L102.281 66.6092C102.687 64.3923 104.906 62.9999 107.079 63.5975L118.902 66.8488C119.774 67.0885 120.533 67.6277 121.046 68.3717L136.209 90.3485C137.414 92.0954 136.975 94.4886 135.228 95.6938L120.85 105.614C119.103 106.819 116.71 106.38 115.505 104.633L100.451 82.8147Z" fill="white"/>
<path d="M103.515 81.3016C103.364 81.0838 103.304 80.8146 103.351 80.5532L105.584 68.0785C105.69 67.4877 106.289 67.1225 106.862 67.2989L118.451 70.8612C118.663 70.9264 118.847 71.0602 118.975 71.2417L133.328 91.6433C133.656 92.1098 133.528 92.756 133.047 93.0623L119.086 101.947C118.634 102.235 118.036 102.115 117.729 101.676L103.515 81.3016Z" fill="#222222"/>
<path d="M109.755 79.4832C108.113 78.6168 107.484 76.583 108.35 74.9404C109.216 73.2979 111.25 72.6687 112.893 73.5351C114.535 74.4015 115.164 76.4354 114.298 78.0779C113.432 79.7204 111.398 80.3496 109.755 79.4832Z" fill="white"/>
<path d="M117.07 96.9777C116.643 96.3603 116.797 95.5136 117.415 95.0865L126.694 88.6672C127.312 88.2401 128.159 88.3944 128.586 89.0118C129.013 89.6292 128.859 90.476 128.241 90.9031L118.962 97.3223C118.344 97.7495 117.497 97.5952 117.07 96.9777Z" fill="white"/>
<path d="M113.305 91.7434C112.877 91.1259 113.032 90.2792 113.649 89.8521L122.929 83.4328C123.546 83.0057 124.393 83.16 124.82 83.7774C125.247 84.3948 125.093 85.2416 124.475 85.6687L115.196 92.088C114.578 92.5151 113.732 92.3608 113.305 91.7434Z" fill="white"/>
</svg>
