<svg width="1329" height="324" viewBox="0 0 1329 324" fill="none" xmlns="http://www.w3.org/2000/svg">
<path d="M15.1207 45.3903C15.1207 48.4863 15.3727 51.3663 15.8767 54.0303C16.3987 56.6943 17.1547 59.1333 18.1447 61.3473C19.1347 63.5433 20.3497 65.4963 21.7897 67.2063C23.2297 68.9163 24.8767 70.3563 26.7307 71.5263C28.6027 72.6963 30.6637 73.5873 32.9137 74.1993C35.1637 74.7933 37.5937 75.0903 40.2037 75.0903C43.3717 75.0903 46.2427 74.6403 48.8167 73.7403C51.4087 72.8403 53.6857 71.5083 55.6477 69.7443C57.6097 67.9623 59.2567 65.7573 60.5887 63.1293C61.9207 60.5013 62.9107 57.4683 63.5587 54.0303H74.9257C74.1157 58.9623 72.7117 63.3813 70.7137 67.2873C68.7337 71.1933 66.2497 74.5053 63.2617 77.2233C60.2737 79.9413 56.8357 82.0203 52.9477 83.4603C49.0597 84.9003 44.8027 85.6203 40.1767 85.6203C36.5767 85.6203 33.1747 85.1793 29.9707 84.2973C26.7667 83.4153 23.8147 82.1553 21.1147 80.5173C18.4327 78.8613 16.0117 76.8543 13.8517 74.4963C11.7097 72.1203 9.8917 69.4473 8.3977 66.4773C6.9037 63.4893 5.7607 60.2313 4.9687 56.7033C4.1767 53.1573 3.7807 49.3863 3.7807 45.3903C3.7807 41.3943 4.1767 37.6323 4.9687 34.1043C5.7607 30.5583 6.9037 27.3003 8.3977 24.3303C9.8917 21.3423 11.7097 18.6693 13.8517 16.3113C16.0117 13.9353 18.4327 11.9283 21.1147 10.2903C23.8147 8.63432 26.7667 7.36532 29.9707 6.48332C33.1747 5.60132 36.5767 5.16031 40.1767 5.16031C44.8027 5.16031 49.0597 5.88031 52.9477 7.32031C56.8357 8.76031 60.2737 10.8393 63.2617 13.5573C66.2497 16.2753 68.7337 19.5873 70.7137 23.4933C72.7117 27.3993 74.1157 31.8183 74.9257 36.7503H63.5587C62.9107 33.3123 61.9207 30.2793 60.5887 27.6513C59.2567 25.0233 57.6097 22.8273 55.6477 21.0633C53.6857 19.2813 51.4087 17.9403 48.8167 17.0403C46.2427 16.1403 43.3717 15.6903 40.2037 15.6903C37.5937 15.6903 35.1637 15.9963 32.9137 16.6083C30.6637 17.2023 28.6027 18.0843 26.7307 19.2543C24.8767 20.4243 23.2297 21.8643 21.7897 23.5743C20.3497 25.2843 19.1347 27.2463 18.1447 29.4603C17.1547 31.6563 16.3987 34.0863 15.8767 36.7503C15.3727 39.4143 15.1207 42.2943 15.1207 45.3903Z" fill="#2C2C2C"/>
<path d="M93.3827 54.4893V84.0003H82.4477V24.4653H93.3827V43.7703L93.3017 43.7973C93.9677 40.7913 94.9487 38.0913 96.2447 35.6973C97.5587 33.3033 99.1787 31.2783 101.105 29.6223C103.049 27.9483 105.299 26.6703 107.855 25.7883C110.411 24.9063 113.273 24.4653 116.441 24.4653H119.141V34.8873H116.468C112.112 34.8873 108.458 35.2923 105.506 36.1023C102.554 36.8943 100.178 38.1003 98.3777 39.7203C96.5957 41.3403 95.3177 43.3833 94.5437 45.8493C93.7697 48.2973 93.3827 51.1773 93.3827 54.4893Z" fill="#2C2C2C"/>
<path d="M122.952 45.2013C122.952 41.7813 123.582 38.6943 124.842 35.9403C126.102 33.1863 127.902 30.8373 130.242 28.8933C132.6 26.9493 135.453 25.4553 138.801 24.4113C142.149 23.3673 145.902 22.8453 150.06 22.8453C154.47 22.8453 158.421 23.4393 161.913 24.6273C165.405 25.7973 168.366 27.4893 170.796 29.7033C173.226 31.9173 175.089 34.6263 176.385 37.8303C177.681 41.0163 178.329 44.6343 178.329 48.6843V84.0003H167.394V67.6923H167.475C167.007 69.5463 166.368 71.2743 165.558 72.8763C164.748 74.4783 163.785 75.9453 162.669 77.2773C161.553 78.6093 160.284 79.7973 158.862 80.8413C157.458 81.8673 155.919 82.7403 154.245 83.4603C152.589 84.1623 150.807 84.6933 148.899 85.0533C146.991 85.4313 144.984 85.6203 142.878 85.6203C139.62 85.6203 136.659 85.1883 133.995 84.3243C131.331 83.4783 129.045 82.2723 127.137 80.7063C125.247 79.1223 123.78 77.2323 122.736 75.0363C121.71 72.8223 121.197 70.3653 121.197 67.6653C121.197 64.9473 121.728 62.4993 122.79 60.3213C123.87 58.1433 125.409 56.2983 127.407 54.7863C129.423 53.2563 131.862 52.0863 134.724 51.2763C137.586 50.4663 140.817 50.0613 144.417 50.0613H167.799V59.2413H144.309C142.293 59.2413 140.52 59.4123 138.99 59.7543C137.46 60.0963 136.173 60.6093 135.129 61.2933C134.103 61.9773 133.32 62.8233 132.78 63.8313C132.258 64.8393 131.997 66.0003 131.997 67.3143C131.997 68.7183 132.294 69.9693 132.888 71.0673C133.5 72.1653 134.391 73.0833 135.561 73.8213C136.731 74.5593 138.171 75.1263 139.881 75.5223C141.609 75.9003 143.589 76.0893 145.821 76.0893C147.927 76.0893 149.916 75.9183 151.788 75.5763C153.678 75.2343 155.424 74.7483 157.026 74.1183C158.628 73.4883 160.068 72.7233 161.346 71.8233C162.624 70.9233 163.713 69.9153 164.613 68.7993C165.513 67.6653 166.197 66.4323 166.665 65.1003C167.151 63.7683 167.394 62.3643 167.394 60.8883V48.6843C167.394 46.2363 166.98 44.0313 166.152 42.0693C165.342 40.1073 164.181 38.4333 162.669 37.0473C161.157 35.6613 159.321 34.5993 157.161 33.8613C155.001 33.1233 152.571 32.7543 149.871 32.7543C147.117 32.7543 144.732 33.0513 142.716 33.6453C140.718 34.2393 139.062 35.0763 137.748 36.1563C136.452 37.2363 135.48 38.5503 134.832 40.0983C134.202 41.6283 133.887 43.3293 133.887 45.2013H122.952Z" fill="#2C2C2C"/>
<path d="M190.954 84.0003V23.1153C190.954 19.4433 191.413 16.2033 192.331 13.3953C193.249 10.5693 194.599 8.21131 196.381 6.32131C198.181 4.43131 200.404 3.00031 203.05 2.02831C205.696 1.05631 208.756 0.570312 212.23 0.570312C213.724 0.570312 215.263 0.660312 216.847 0.840312C218.449 1.00231 220.114 1.26331 221.842 1.62331V11.0733C220.258 10.7493 218.8 10.5063 217.468 10.3443C216.136 10.1823 214.894 10.1013 213.742 10.1013C211.672 10.1013 209.854 10.3713 208.288 10.9113C206.74 11.4513 205.453 12.2613 204.427 13.3413C203.401 14.4213 202.627 15.7803 202.105 17.4183C201.601 19.0383 201.349 20.9373 201.349 23.1153V29.2983H201.889V84.0003H190.954ZM221.869 24.4653V33.6453H181.909V24.4653H221.869Z" fill="#2C2C2C"/>
<path d="M263.449 83.5413C261.145 84.2433 258.967 84.7563 256.915 85.0803C254.881 85.4223 252.955 85.5933 251.137 85.5933C248.167 85.5933 245.539 85.1343 243.253 84.2163C240.985 83.3163 239.077 81.9753 237.529 80.1933C235.981 78.3933 234.802 76.1703 233.992 73.5243C233.2 70.8603 232.804 67.7823 232.804 64.2903V10.7493H243.739V64.3173C243.739 66.2973 243.919 68.0163 244.279 69.4743C244.657 70.9143 245.215 72.1113 245.953 73.0653C246.709 74.0013 247.663 74.7033 248.815 75.1713C249.985 75.6393 251.371 75.8733 252.973 75.8733C254.233 75.8733 255.718 75.7293 257.428 75.4413C259.138 75.1533 261.145 74.7033 263.449 74.0913V83.5413ZM263.449 33.6453H224.704V24.4653H263.449V33.6453Z" fill="#2C2C2C"/>
<path d="M281.016 24.4653V84.0003H270.081V24.4653H281.016ZM281.286 4.08032V17.5803H269.811V4.08032H281.286Z" fill="#2C2C2C"/>
<path d="M299.553 51.7893V84.0003H288.618V24.4653H299.553V41.9613L299.472 42.0153C300.174 39.0273 301.191 36.3543 302.523 33.9963C303.873 31.6203 305.493 29.6133 307.383 27.9753C309.291 26.3193 311.442 25.0503 313.836 24.1683C316.248 23.2863 318.849 22.8453 321.639 22.8453C325.041 22.8453 328.083 23.4843 330.765 24.7623C333.447 26.0403 335.715 27.8853 337.569 30.2973C339.423 32.6913 340.845 35.6163 341.835 39.0723C342.825 42.5103 343.32 46.3893 343.32 50.7093V84.0003H332.385V50.7093C332.385 47.7213 332.07 45.1113 331.44 42.8793C330.81 40.6293 329.856 38.7573 328.578 37.2633C327.3 35.7513 325.707 34.6173 323.799 33.8613C321.891 33.1053 319.659 32.7273 317.103 32.7273C315.267 32.7273 313.557 32.9253 311.973 33.3213C310.407 33.6993 308.967 34.2573 307.653 34.9953C306.357 35.7333 305.205 36.6513 304.197 37.7493C303.189 38.8293 302.343 40.0803 301.659 41.5023C300.975 42.9063 300.453 44.4723 300.093 46.2003C299.733 47.9103 299.553 49.7733 299.553 51.7893Z" fill="#2C2C2C"/>
<path d="M396.535 24.4653H407.47V73.2003C407.47 78.1143 406.768 82.5873 405.364 86.6193C403.978 90.6693 402.016 94.1343 399.478 97.0143C396.94 99.8943 393.88 102.126 390.298 103.71C386.734 105.294 382.774 106.086 378.418 106.086C375.934 106.086 373.558 105.825 371.29 105.303C369.022 104.799 366.907 104.07 364.945 103.116C363.001 102.162 361.228 101.01 359.626 99.6603C358.042 98.3103 356.683 96.8073 355.549 95.1513C354.415 93.4953 353.542 91.7043 352.93 89.7783C352.318 87.8523 352.012 85.8363 352.012 83.7303H362.947C362.947 85.5303 363.352 87.2133 364.162 88.7793C364.99 90.3453 366.106 91.7133 367.51 92.8833C368.914 94.0533 370.561 94.9713 372.451 95.6373C374.341 96.3033 376.357 96.6363 378.499 96.6363C381.235 96.6363 383.71 96.0783 385.924 94.9623C388.156 93.8463 390.055 92.2623 391.621 90.2103C393.187 88.1763 394.393 85.7193 395.239 82.8393C396.103 79.9413 396.535 76.7283 396.535 73.2003V63.4803L396.616 63.4533C395.86 66.4233 394.789 69.1143 393.403 71.5263C392.017 73.9203 390.361 75.9633 388.435 77.6553C386.509 79.3473 384.34 80.6523 381.928 81.5703C379.534 82.4703 376.933 82.9203 374.125 82.9203C371.731 82.9203 369.454 82.5873 367.294 81.9213C365.134 81.2373 363.136 80.2743 361.3 79.0323C359.464 77.7723 357.799 76.2513 356.305 74.4693C354.829 72.6693 353.569 70.6623 352.525 68.4483C351.481 66.2163 350.671 63.7953 350.095 61.1853C349.537 58.5573 349.258 55.7853 349.258 52.8693C349.258 49.9533 349.537 47.1903 350.095 44.5803C350.671 41.9523 351.481 39.5313 352.525 37.3173C353.569 35.0853 354.829 33.0783 356.305 31.2963C357.799 29.5143 359.464 28.0023 361.3 26.7603C363.136 25.5003 365.134 24.5373 367.294 23.8713C369.454 23.1873 371.731 22.8453 374.125 22.8453C376.933 22.8453 379.534 23.3043 381.928 24.2223C384.34 25.1223 386.509 26.4183 388.435 28.1103C390.361 29.8023 392.017 31.8453 393.403 34.2393C394.789 36.6333 395.86 39.3243 396.616 42.3123L396.535 42.2583V24.4653ZM396.535 52.8693C396.535 50.7453 396.346 48.7653 395.968 46.9293C395.59 45.0933 395.032 43.4193 394.294 41.9073C393.574 40.3953 392.683 39.0543 391.621 37.8843C390.559 36.7143 389.335 35.7243 387.949 34.9143C386.563 34.1043 385.024 33.4923 383.332 33.0783C381.658 32.6643 379.84 32.4573 377.878 32.4573C375.034 32.4573 372.514 32.8983 370.318 33.7803C368.122 34.6623 366.268 35.9673 364.756 37.6953C363.262 39.4233 362.128 41.5563 361.354 44.0943C360.58 46.6323 360.193 49.5573 360.193 52.8693C360.193 56.1813 360.58 59.1063 361.354 61.6443C362.128 64.1823 363.262 66.3153 364.756 68.0433C366.268 69.7713 368.122 71.0853 370.318 71.9853C372.514 72.8673 375.034 73.3083 377.878 73.3083C379.84 73.3083 381.658 73.1013 383.332 72.6873C385.024 72.2553 386.554 71.6433 387.922 70.8513C389.308 70.0413 390.532 69.0513 391.594 67.8813C392.674 66.6933 393.574 65.3433 394.294 63.8313C395.032 62.3193 395.59 60.6453 395.968 58.8093C396.346 56.9733 396.535 54.9933 396.535 52.8693Z" fill="#2C2C2C"/>
<path d="M474.787 83.5413C472.483 84.2433 470.305 84.7563 468.253 85.0803C466.219 85.4223 464.293 85.5933 462.475 85.5933C459.505 85.5933 456.877 85.1343 454.591 84.2163C452.323 83.3163 450.415 81.9753 448.867 80.1933C447.319 78.3933 446.14 76.1703 445.33 73.5243C444.538 70.8603 444.142 67.7823 444.142 64.2903V10.7493H455.077V64.3173C455.077 66.2973 455.257 68.0163 455.617 69.4743C455.995 70.9143 456.553 72.1113 457.291 73.0653C458.047 74.0013 459.001 74.7033 460.153 75.1713C461.323 75.6393 462.709 75.8733 464.311 75.8733C465.571 75.8733 467.056 75.7293 468.766 75.4413C470.476 75.1533 472.483 74.7033 474.787 74.0913V83.5413ZM474.787 33.6453H436.042V24.4653H474.787V33.6453Z" fill="#2C2C2C"/>
<path d="M492.354 51.7893V84.0003H481.419V4.08032H492.354V41.9613L492.273 42.0153C492.975 39.0273 493.992 36.3543 495.324 33.9963C496.674 31.6203 498.294 29.6133 500.184 27.9753C502.092 26.3193 504.243 25.0503 506.637 24.1683C509.049 23.2863 511.65 22.8453 514.44 22.8453C517.842 22.8453 520.884 23.4843 523.566 24.7623C526.248 26.0403 528.516 27.8853 530.37 30.2973C532.224 32.6913 533.646 35.6163 534.636 39.0723C535.626 42.5103 536.121 46.3893 536.121 50.7093V84.0003H525.186V50.7093C525.186 47.7213 524.871 45.1113 524.241 42.8793C523.611 40.6293 522.657 38.7573 521.379 37.2633C520.101 35.7513 518.508 34.6173 516.6 33.8613C514.692 33.1053 512.46 32.7273 509.904 32.7273C508.068 32.7273 506.358 32.9253 504.774 33.3213C503.208 33.6993 501.768 34.2573 500.454 34.9953C499.158 35.7333 498.006 36.6513 496.998 37.7493C495.99 38.8293 495.144 40.0803 494.46 41.5023C493.776 42.9063 493.254 44.4723 492.894 46.2003C492.534 47.9103 492.354 49.7733 492.354 51.7893Z" fill="#2C2C2C"/>
<path d="M552.994 54.4353C552.994 57.7113 553.426 60.6633 554.29 63.2913C555.154 65.9193 556.387 68.1603 557.989 70.0143C559.609 71.8503 561.562 73.2633 563.848 74.2533C566.152 75.2433 568.735 75.7383 571.597 75.7383C573.559 75.7383 575.368 75.4953 577.024 75.0093C578.68 74.5233 580.174 73.8033 581.506 72.8493C582.856 71.8773 584.044 70.6803 585.07 69.2583C586.114 67.8183 586.996 66.1533 587.716 64.2633H598.651C597.877 67.5933 596.671 70.5813 595.033 73.2273C593.395 75.8733 591.397 78.1143 589.039 79.9503C586.699 81.7863 584.026 83.1903 581.02 84.1623C578.032 85.1343 574.801 85.6203 571.327 85.6203C566.935 85.6203 562.939 84.8643 559.339 83.3523C555.757 81.8403 552.679 79.7073 550.105 76.9533C547.549 74.1993 545.569 70.8873 544.165 67.0173C542.761 63.1473 542.059 58.8543 542.059 54.1383C542.059 49.4583 542.752 45.2013 544.138 41.3673C545.524 37.5153 547.486 34.2213 550.024 31.4853C552.562 28.7313 555.604 26.6073 559.15 25.1133C562.714 23.6013 566.656 22.8453 570.976 22.8453C575.242 22.8453 579.094 23.5833 582.532 25.0593C585.97 26.5173 588.904 28.5963 591.334 31.2963C593.764 33.9963 595.636 37.2633 596.95 41.0973C598.264 44.9313 598.921 49.2243 598.921 53.9763C598.921 54.6603 598.903 55.3443 598.867 56.0283C598.849 56.6943 598.804 57.4233 598.732 58.2153H550.672V48.7653H593.575L587.797 58.1343C587.851 57.5223 587.887 56.8923 587.905 56.2443C587.941 55.5963 587.959 54.9483 587.959 54.3003C587.959 50.8443 587.581 47.7843 586.825 45.1203C586.087 42.4383 584.998 40.1793 583.558 38.3433C582.118 36.5073 580.345 35.1123 578.239 34.1583C576.151 33.2043 573.748 32.7273 571.03 32.7273C568.24 32.7273 565.729 33.2223 563.497 34.2123C561.283 35.2023 559.393 36.6243 557.827 38.4783C556.279 40.3323 555.082 42.5823 554.236 45.2283C553.408 47.8743 552.994 50.8443 552.994 54.1383V54.4353Z" fill="#2C2C2C"/>
<path d="M639.196 24.4653V84.0003H628.261V24.4653H639.196ZM639.466 4.08032V17.5803H627.991V4.08032H639.466Z" fill="#2C2C2C"/>
<path d="M692.725 4.08032H703.66V84.0003H692.725V65.3433L692.806 65.2893C692.05 68.3853 690.979 71.1933 689.593 73.7133C688.225 76.2153 686.587 78.3483 684.679 80.1123C682.789 81.8763 680.656 83.2353 678.28 84.1893C675.904 85.1433 673.357 85.6203 670.639 85.6203C668.191 85.6203 665.869 85.2693 663.673 84.5673C661.477 83.8653 659.443 82.8573 657.571 81.5433C655.717 80.2293 654.034 78.6453 652.522 76.7913C651.028 74.9193 649.759 72.8223 648.715 70.5003C647.671 68.1603 646.861 65.6223 646.285 62.8863C645.727 60.1503 645.448 57.2613 645.448 54.2193C645.448 51.1773 645.727 48.2883 646.285 45.5523C646.861 42.8163 647.671 40.2873 648.715 37.9653C649.759 35.6433 651.028 33.5463 652.522 31.6743C654.034 29.8023 655.717 28.2183 657.571 26.9223C659.443 25.6083 661.477 24.6003 663.673 23.8983C665.869 23.1963 668.191 22.8453 670.639 22.8453C673.357 22.8453 675.904 23.3223 678.28 24.2763C680.656 25.2303 682.789 26.5893 684.679 28.3533C686.587 30.1173 688.225 32.2503 689.593 34.7523C690.979 37.2543 692.05 40.0533 692.806 43.1493L692.725 43.1223V4.08032ZM692.725 54.2193C692.725 51.9513 692.536 49.8453 692.158 47.9013C691.78 45.9393 691.231 44.1573 690.511 42.5553C689.791 40.9353 688.9 39.5043 687.838 38.2623C686.776 37.0023 685.561 35.9493 684.193 35.1033C682.843 34.2393 681.34 33.5823 679.684 33.1323C678.046 32.6823 676.273 32.4573 674.365 32.4573C671.449 32.4573 668.866 32.9343 666.616 33.8883C664.384 34.8243 662.512 36.2103 661 38.0463C659.488 39.8823 658.336 42.1593 657.544 44.8773C656.77 47.5773 656.383 50.6913 656.383 54.2193C656.383 57.7473 656.77 60.8703 657.544 63.5883C658.336 66.2883 659.488 68.5653 661 70.4193C662.53 72.2553 664.411 73.6503 666.643 74.6043C668.875 75.5403 671.449 76.0083 674.365 76.0083C676.273 76.0083 678.046 75.7833 679.684 75.3333C681.34 74.8833 682.843 74.2353 684.193 73.3893C685.561 72.5253 686.776 71.4723 687.838 70.2303C688.9 68.9703 689.791 67.5303 690.511 65.9103C691.231 64.2903 691.78 62.5083 692.158 60.5643C692.536 58.6023 692.725 56.4873 692.725 54.2193Z" fill="#2C2C2C"/>
<path d="M720.799 54.4353C720.799 57.7113 721.231 60.6633 722.095 63.2913C722.959 65.9193 724.192 68.1603 725.794 70.0143C727.414 71.8503 729.367 73.2633 731.653 74.2533C733.957 75.2433 736.54 75.7383 739.402 75.7383C741.364 75.7383 743.173 75.4953 744.829 75.0093C746.485 74.5233 747.979 73.8033 749.311 72.8493C750.661 71.8773 751.849 70.6803 752.875 69.2583C753.919 67.8183 754.801 66.1533 755.521 64.2633H766.456C765.682 67.5933 764.476 70.5813 762.838 73.2273C761.2 75.8733 759.202 78.1143 756.844 79.9503C754.504 81.7863 751.831 83.1903 748.825 84.1623C745.837 85.1343 742.606 85.6203 739.132 85.6203C734.74 85.6203 730.744 84.8643 727.144 83.3523C723.562 81.8403 720.484 79.7073 717.91 76.9533C715.354 74.1993 713.374 70.8873 711.97 67.0173C710.566 63.1473 709.864 58.8543 709.864 54.1383C709.864 49.4583 710.557 45.2013 711.943 41.3673C713.329 37.5153 715.291 34.2213 717.829 31.4853C720.367 28.7313 723.409 26.6073 726.955 25.1133C730.519 23.6013 734.461 22.8453 738.781 22.8453C743.047 22.8453 746.899 23.5833 750.337 25.0593C753.775 26.5173 756.709 28.5963 759.139 31.2963C761.569 33.9963 763.441 37.2633 764.755 41.0973C766.069 44.9313 766.726 49.2243 766.726 53.9763C766.726 54.6603 766.708 55.3443 766.672 56.0283C766.654 56.6943 766.609 57.4233 766.537 58.2153H718.477V48.7653H761.38L755.602 58.1343C755.656 57.5223 755.692 56.8923 755.71 56.2443C755.746 55.5963 755.764 54.9483 755.764 54.3003C755.764 50.8443 755.386 47.7843 754.63 45.1203C753.892 42.4383 752.803 40.1793 751.363 38.3433C749.923 36.5073 748.15 35.1123 746.044 34.1583C743.956 33.2043 741.553 32.7273 738.835 32.7273C736.045 32.7273 733.534 33.2223 731.302 34.2123C729.088 35.2023 727.198 36.6243 725.632 38.4783C724.084 40.3323 722.887 42.5823 722.041 45.2283C721.213 47.8743 720.799 50.8443 720.799 54.1383V54.4353Z" fill="#2C2C2C"/>
<path d="M772.496 45.2013C772.496 41.7813 773.126 38.6943 774.386 35.9403C775.646 33.1863 777.446 30.8373 779.786 28.8933C782.144 26.9493 784.997 25.4553 788.345 24.4113C791.693 23.3673 795.446 22.8453 799.604 22.8453C804.014 22.8453 807.965 23.4393 811.457 24.6273C814.949 25.7973 817.91 27.4893 820.34 29.7033C822.77 31.9173 824.633 34.6263 825.929 37.8303C827.225 41.0163 827.873 44.6343 827.873 48.6843V84.0003H816.938V67.6923H817.019C816.551 69.5463 815.912 71.2743 815.102 72.8763C814.292 74.4783 813.329 75.9453 812.213 77.2773C811.097 78.6093 809.828 79.7973 808.406 80.8413C807.002 81.8673 805.463 82.7403 803.789 83.4603C802.133 84.1623 800.351 84.6933 798.443 85.0533C796.535 85.4313 794.528 85.6203 792.422 85.6203C789.164 85.6203 786.203 85.1883 783.539 84.3243C780.875 83.4783 778.589 82.2723 776.681 80.7063C774.791 79.1223 773.324 77.2323 772.28 75.0363C771.254 72.8223 770.741 70.3653 770.741 67.6653C770.741 64.9473 771.272 62.4993 772.334 60.3213C773.414 58.1433 774.953 56.2983 776.951 54.7863C778.967 53.2563 781.406 52.0863 784.268 51.2763C787.13 50.4663 790.361 50.0613 793.961 50.0613H817.343V59.2413H793.853C791.837 59.2413 790.064 59.4123 788.534 59.7543C787.004 60.0963 785.717 60.6093 784.673 61.2933C783.647 61.9773 782.864 62.8233 782.324 63.8313C781.802 64.8393 781.541 66.0003 781.541 67.3143C781.541 68.7183 781.838 69.9693 782.432 71.0673C783.044 72.1653 783.935 73.0833 785.105 73.8213C786.275 74.5593 787.715 75.1263 789.425 75.5223C791.153 75.9003 793.133 76.0893 795.365 76.0893C797.471 76.0893 799.46 75.9183 801.332 75.5763C803.222 75.2343 804.968 74.7483 806.57 74.1183C808.172 73.4883 809.612 72.7233 810.89 71.8233C812.168 70.9233 813.257 69.9153 814.157 68.7993C815.057 67.6653 815.741 66.4323 816.209 65.1003C816.695 63.7683 816.938 62.3643 816.938 60.8883V48.6843C816.938 46.2363 816.524 44.0313 815.696 42.0693C814.886 40.1073 813.725 38.4333 812.213 37.0473C810.701 35.6613 808.865 34.5993 806.705 33.8613C804.545 33.1233 802.115 32.7543 799.415 32.7543C796.661 32.7543 794.276 33.0513 792.26 33.6453C790.262 34.2393 788.606 35.0763 787.292 36.1563C785.996 37.2363 785.024 38.5503 784.376 40.0983C783.746 41.6283 783.431 43.3293 783.431 45.2013H772.496Z" fill="#2C2C2C"/>
<path d="M859.387 22.8453C863.437 22.8453 867.037 23.3043 870.187 24.2223C873.355 25.1403 876.019 26.4543 878.179 28.1643C880.357 29.8563 882.004 31.9173 883.12 34.3473C884.254 36.7593 884.821 39.4683 884.821 42.4743H874.156C874.156 40.9443 873.832 39.5583 873.184 38.3163C872.554 37.0563 871.609 35.9853 870.349 35.1033C869.107 34.2033 867.568 33.5103 865.732 33.0243C863.896 32.5383 861.781 32.2953 859.387 32.2953C857.245 32.2953 855.283 32.4933 853.501 32.8893C851.719 33.2853 850.189 33.8523 848.911 34.5903C847.633 35.3103 846.643 36.1833 845.941 37.2093C845.239 38.2173 844.888 39.3423 844.888 40.5843C844.888 41.5203 845.086 42.3393 845.482 43.0413C845.878 43.7433 846.418 44.3643 847.102 44.9043C847.786 45.4263 848.587 45.8763 849.505 46.2543C850.423 46.6143 851.404 46.9293 852.448 47.1993C853.51 47.4693 854.608 47.7033 855.742 47.9013C856.876 48.0813 857.992 48.2613 859.09 48.4413L863.059 49.0623C864.733 49.3323 866.479 49.6383 868.297 49.9803C870.133 50.3043 871.933 50.7363 873.697 51.2763C875.479 51.8163 877.171 52.5093 878.773 53.3553C880.393 54.1833 881.806 55.2273 883.012 56.4873C884.236 57.7473 885.208 59.2593 885.928 61.0233C886.666 62.7873 887.035 64.8663 887.035 67.2603C887.035 70.1943 886.459 72.8043 885.307 75.0903C884.155 77.3583 882.454 79.2753 880.204 80.8413C877.954 82.4073 875.173 83.5953 871.861 84.4053C868.549 85.2153 864.724 85.6203 860.386 85.6203C855.868 85.6203 851.908 85.1793 848.506 84.2973C845.104 83.4153 842.269 82.1193 840.001 80.4093C837.733 78.6993 836.023 76.6023 834.871 74.1183C833.737 71.6163 833.17 68.7453 833.17 65.5053H843.835C843.835 67.2153 844.168 68.7363 844.834 70.0683C845.5 71.3823 846.517 72.4983 847.885 73.4163C849.253 74.3163 850.972 75.0003 853.042 75.4683C855.112 75.9363 857.551 76.1703 860.359 76.1703C862.897 76.1703 865.156 75.9813 867.136 75.6033C869.116 75.2253 870.79 74.6673 872.158 73.9293C873.526 73.1913 874.57 72.2913 875.29 71.2293C876.01 70.1493 876.37 68.9163 876.37 67.5303C876.37 66.4323 876.154 65.4783 875.722 64.6683C875.308 63.8583 874.732 63.1473 873.994 62.5353C873.274 61.9233 872.41 61.4013 871.402 60.9693C870.412 60.5193 869.332 60.1323 868.162 59.8083C866.992 59.4843 865.768 59.2053 864.49 58.9713C863.23 58.7373 861.952 58.5033 860.656 58.2693L856.687 57.5943C855.175 57.3423 853.573 57.0543 851.881 56.7303C850.189 56.4063 848.506 55.9833 846.832 55.4613C845.176 54.9393 843.583 54.2913 842.053 53.5173C840.541 52.7433 839.2 51.7803 838.03 50.6283C836.878 49.4583 835.951 48.0813 835.249 46.4973C834.565 44.8953 834.223 43.0053 834.223 40.8273C834.223 38.0913 834.799 35.6163 835.951 33.4023C837.121 31.1883 838.786 29.2983 840.946 27.7323C843.124 26.1663 845.761 24.9603 848.857 24.1143C851.971 23.2683 855.481 22.8453 859.387 22.8453Z" fill="#2C2C2C"/>
<path d="M914.583 54.2193C914.583 51.0873 914.899 48.1353 915.529 45.3633C916.159 42.5913 917.067 40.0443 918.255 37.7223C919.443 35.4003 920.884 33.3213 922.576 31.4853C924.286 29.6313 926.22 28.0653 928.38 26.7873C930.54 25.5093 932.898 24.5373 935.454 23.8713C938.028 23.1873 940.774 22.8453 943.69 22.8453C946.606 22.8453 949.342 23.1873 951.898 23.8713C954.472 24.5373 956.838 25.5093 958.998 26.7873C961.158 28.0653 963.084 29.6313 964.776 31.4853C966.486 33.3213 967.935 35.4003 969.123 37.7223C970.311 40.0443 971.221 42.5913 971.851 45.3633C972.481 48.1353 972.795 51.0873 972.795 54.2193C972.795 57.3513 972.481 60.3033 971.851 63.0753C971.221 65.8473 970.311 68.4033 969.123 70.7433C967.935 73.0653 966.486 75.1443 964.776 76.9803C963.066 78.8163 961.131 80.3823 958.971 81.6783C956.829 82.9563 954.472 83.9283 951.898 84.5943C949.342 85.2783 946.606 85.6203 943.69 85.6203C940.774 85.6203 938.028 85.2783 935.454 84.5943C932.898 83.9283 930.54 82.9563 928.38 81.6783C926.238 80.3823 924.312 78.8163 922.602 76.9803C920.892 75.1443 919.443 73.0653 918.255 70.7433C917.067 68.4033 916.159 65.8473 915.529 63.0753C914.899 60.3033 914.583 57.3513 914.583 54.2193ZM925.518 54.2193C925.518 57.5493 925.932 60.5463 926.76 63.2103C927.606 65.8563 928.812 68.1063 930.378 69.9603C931.962 71.8143 933.88 73.2453 936.13 74.2533C938.38 75.2433 940.908 75.7383 943.716 75.7383C946.524 75.7383 949.044 75.2433 951.276 74.2533C953.526 73.2633 955.434 71.8413 957 69.9873C958.566 68.1153 959.763 65.8563 960.591 63.2103C961.437 60.5463 961.86 57.5493 961.86 54.2193C961.86 50.8893 961.437 47.9013 960.591 45.2553C959.763 42.5913 958.566 40.3323 957 38.4783C955.434 36.6243 953.526 35.2023 951.276 34.2123C949.044 33.2223 946.524 32.7273 943.716 32.7273C940.908 32.7273 938.38 33.2223 936.13 34.2123C933.88 35.2023 931.962 36.6243 930.378 38.4783C928.812 40.3323 927.606 42.5913 926.76 45.2553C925.932 47.9013 925.518 50.8893 925.518 54.2193Z" fill="#2C2C2C"/>
<path d="M984.492 84.0003V23.1153C984.492 19.4433 984.951 16.2033 985.869 13.3953C986.787 10.5693 988.137 8.21131 989.919 6.32131C991.719 4.43131 993.942 3.00031 996.588 2.02831C999.234 1.05631 1002.29 0.570312 1005.77 0.570312C1007.26 0.570312 1008.8 0.660312 1010.39 0.840312C1011.99 1.00231 1013.65 1.26331 1015.38 1.62331V11.0733C1013.8 10.7493 1012.34 10.5063 1011.01 10.3443C1009.67 10.1823 1008.43 10.1013 1007.28 10.1013C1005.21 10.1013 1003.39 10.3713 1001.83 10.9113C1000.28 11.4513 998.991 12.2613 997.965 13.3413C996.939 14.4213 996.165 15.7803 995.643 17.4183C995.139 19.0383 994.887 20.9373 994.887 23.1153V29.2983H995.427V84.0003H984.492ZM1015.41 24.4653V33.6453H975.447V24.4653H1015.41Z" fill="#2C2C2C"/>
<path d="M1081.75 83.5413C1079.44 84.2433 1077.27 84.7563 1075.21 85.0803C1073.18 85.4223 1071.25 85.5933 1069.44 85.5933C1066.47 85.5933 1063.84 85.1343 1061.55 84.2163C1059.28 83.3163 1057.38 81.9753 1055.83 80.1933C1054.28 78.3933 1053.1 76.1703 1052.29 73.5243C1051.5 70.8603 1051.1 67.7823 1051.1 64.2903V10.7493H1062.04V64.3173C1062.04 66.2973 1062.22 68.0163 1062.58 69.4743C1062.96 70.9143 1063.51 72.1113 1064.25 73.0653C1065.01 74.0013 1065.96 74.7033 1067.11 75.1713C1068.28 75.6393 1069.67 75.8733 1071.27 75.8733C1072.53 75.8733 1074.02 75.7293 1075.73 75.4413C1077.44 75.1533 1079.44 74.7033 1081.75 74.0913V83.5413ZM1081.75 33.6453H1043V24.4653H1081.75V33.6453Z" fill="#2C2C2C"/>
<path d="M1084.6 54.2193C1084.6 51.0873 1084.92 48.1353 1085.55 45.3633C1086.18 42.5913 1087.09 40.0443 1088.28 37.7223C1089.46 35.4003 1090.9 33.3213 1092.6 31.4853C1094.31 29.6313 1096.24 28.0653 1098.4 26.7873C1100.56 25.5093 1102.92 24.5373 1105.47 23.8713C1108.05 23.1873 1110.79 22.8453 1113.71 22.8453C1116.63 22.8453 1119.36 23.1873 1121.92 23.8713C1124.49 24.5373 1126.86 25.5093 1129.02 26.7873C1131.18 28.0653 1133.1 29.6313 1134.8 31.4853C1136.51 33.3213 1137.96 35.4003 1139.14 37.7223C1140.33 40.0443 1141.24 42.5913 1141.87 45.3633C1142.5 48.1353 1142.82 51.0873 1142.82 54.2193C1142.82 57.3513 1142.5 60.3033 1141.87 63.0753C1141.24 65.8473 1140.33 68.4033 1139.14 70.7433C1137.96 73.0653 1136.51 75.1443 1134.8 76.9803C1133.09 78.8163 1131.15 80.3823 1128.99 81.6783C1126.85 82.9563 1124.49 83.9283 1121.92 84.5943C1119.36 85.2783 1116.63 85.6203 1113.71 85.6203C1110.79 85.6203 1108.05 85.2783 1105.47 84.5943C1102.92 83.9283 1100.56 82.9563 1098.4 81.6783C1096.26 80.3823 1094.33 78.8163 1092.62 76.9803C1090.91 75.1443 1089.46 73.0653 1088.28 70.7433C1087.09 68.4033 1086.18 65.8473 1085.55 63.0753C1084.92 60.3033 1084.6 57.3513 1084.6 54.2193ZM1095.54 54.2193C1095.54 57.5493 1095.95 60.5463 1096.78 63.2103C1097.63 65.8563 1098.83 68.1063 1100.4 69.9603C1101.98 71.8143 1103.9 73.2453 1106.15 74.2533C1108.4 75.2433 1110.93 75.7383 1113.74 75.7383C1116.54 75.7383 1119.06 75.2433 1121.3 74.2533C1123.55 73.2633 1125.45 71.8413 1127.02 69.9873C1128.59 68.1153 1129.78 65.8563 1130.61 63.2103C1131.46 60.5463 1131.88 57.5493 1131.88 54.2193C1131.88 50.8893 1131.46 47.9013 1130.61 45.2553C1129.78 42.5913 1128.59 40.3323 1127.02 38.4783C1125.45 36.6243 1123.55 35.2023 1121.3 34.2123C1119.06 33.2223 1116.54 32.7273 1113.74 32.7273C1110.93 32.7273 1108.4 33.2223 1106.15 34.2123C1103.9 35.2023 1101.98 36.6243 1100.4 38.4783C1098.83 40.3323 1097.63 42.5913 1096.78 45.2553C1095.95 47.9013 1095.54 50.8893 1095.54 54.2193Z" fill="#2C2C2C"/>
<path d="M1194.93 4.08032H1205.86V84.0003H1194.93V65.3433L1195.01 65.2893C1194.25 68.3853 1193.18 71.1933 1191.79 73.7133C1190.43 76.2153 1188.79 78.3483 1186.88 80.1123C1184.99 81.8763 1182.86 83.2353 1180.48 84.1893C1178.1 85.1433 1175.56 85.6203 1172.84 85.6203C1170.39 85.6203 1168.07 85.2693 1165.87 84.5673C1163.68 83.8653 1161.64 82.8573 1159.77 81.5433C1157.92 80.2293 1156.23 78.6453 1154.72 76.7913C1153.23 74.9193 1151.96 72.8223 1150.92 70.5003C1149.87 68.1603 1149.06 65.6223 1148.49 62.8863C1147.93 60.1503 1147.65 57.2613 1147.65 54.2193C1147.65 51.1773 1147.93 48.2883 1148.49 45.5523C1149.06 42.8163 1149.87 40.2873 1150.92 37.9653C1151.96 35.6433 1153.23 33.5463 1154.72 31.6743C1156.23 29.8023 1157.92 28.2183 1159.77 26.9223C1161.64 25.6083 1163.68 24.6003 1165.87 23.8983C1168.07 23.1963 1170.39 22.8453 1172.84 22.8453C1175.56 22.8453 1178.1 23.3223 1180.48 24.2763C1182.86 25.2303 1184.99 26.5893 1186.88 28.3533C1188.79 30.1173 1190.43 32.2503 1191.79 34.7523C1193.18 37.2543 1194.25 40.0533 1195.01 43.1493L1194.93 43.1223V4.08032ZM1194.93 54.2193C1194.93 51.9513 1194.74 49.8453 1194.36 47.9013C1193.98 45.9393 1193.43 44.1573 1192.71 42.5553C1191.99 40.9353 1191.1 39.5043 1190.04 38.2623C1188.98 37.0023 1187.76 35.9493 1186.39 35.1033C1185.04 34.2393 1183.54 33.5823 1181.88 33.1323C1180.25 32.6823 1178.47 32.4573 1176.57 32.4573C1173.65 32.4573 1171.07 32.9343 1168.82 33.8883C1166.58 34.8243 1164.71 36.2103 1163.2 38.0463C1161.69 39.8823 1160.54 42.1593 1159.74 44.8773C1158.97 47.5773 1158.58 50.6913 1158.58 54.2193C1158.58 57.7473 1158.97 60.8703 1159.74 63.5883C1160.54 66.2883 1161.69 68.5653 1163.2 70.4193C1164.73 72.2553 1166.61 73.6503 1168.84 74.6043C1171.08 75.5403 1173.65 76.0083 1176.57 76.0083C1178.47 76.0083 1180.25 75.7833 1181.88 75.3333C1183.54 74.8833 1185.04 74.2353 1186.39 73.3893C1187.76 72.5253 1188.98 71.4723 1190.04 70.2303C1191.1 68.9703 1191.99 67.5303 1192.71 65.9103C1193.43 64.2903 1193.98 62.5083 1194.36 60.5643C1194.74 58.6023 1194.93 56.4873 1194.93 54.2193Z" fill="#2C2C2C"/>
<path d="M1213.55 45.2013C1213.55 41.7813 1214.18 38.6943 1215.44 35.9403C1216.7 33.1863 1218.5 30.8373 1220.84 28.8933C1223.2 26.9493 1226.05 25.4553 1229.4 24.4113C1232.75 23.3673 1236.5 22.8453 1240.66 22.8453C1245.07 22.8453 1249.02 23.4393 1252.51 24.6273C1256 25.7973 1258.96 27.4893 1261.39 29.7033C1263.82 31.9173 1265.69 34.6263 1266.98 37.8303C1268.28 41.0163 1268.93 44.6343 1268.93 48.6843V84.0003H1257.99V67.6923H1258.07C1257.6 69.5463 1256.97 71.2743 1256.16 72.8763C1255.35 74.4783 1254.38 75.9453 1253.27 77.2773C1252.15 78.6093 1250.88 79.7973 1249.46 80.8413C1248.06 81.8673 1246.52 82.7403 1244.84 83.4603C1243.19 84.1623 1241.4 84.6933 1239.5 85.0533C1237.59 85.4313 1235.58 85.6203 1233.48 85.6203C1230.22 85.6203 1227.26 85.1883 1224.59 84.3243C1221.93 83.4783 1219.64 82.2723 1217.73 80.7063C1215.84 79.1223 1214.38 77.2323 1213.33 75.0363C1212.31 72.8223 1211.79 70.3653 1211.79 67.6653C1211.79 64.9473 1212.33 62.4993 1213.39 60.3213C1214.47 58.1433 1216.01 56.2983 1218 54.7863C1220.02 53.2563 1222.46 52.0863 1225.32 51.2763C1228.18 50.4663 1231.41 50.0613 1235.01 50.0613H1258.4V59.2413H1234.91C1232.89 59.2413 1231.12 59.4123 1229.59 59.7543C1228.06 60.0963 1226.77 60.6093 1225.73 61.2933C1224.7 61.9773 1223.92 62.8233 1223.38 63.8313C1222.86 64.8393 1222.59 66.0003 1222.59 67.3143C1222.59 68.7183 1222.89 69.9693 1223.49 71.0673C1224.1 72.1653 1224.99 73.0833 1226.16 73.8213C1227.33 74.5593 1228.77 75.1263 1230.48 75.5223C1232.21 75.9003 1234.19 76.0893 1236.42 76.0893C1238.52 76.0893 1240.51 75.9183 1242.39 75.5763C1244.28 75.2343 1246.02 74.7483 1247.62 74.1183C1249.23 73.4883 1250.67 72.7233 1251.94 71.8233C1253.22 70.9233 1254.31 69.9153 1255.21 68.7993C1256.11 67.6653 1256.79 66.4323 1257.26 65.1003C1257.75 63.7683 1257.99 62.3643 1257.99 60.8883V48.6843C1257.99 46.2363 1257.58 44.0313 1256.75 42.0693C1255.94 40.1073 1254.78 38.4333 1253.27 37.0473C1251.75 35.6613 1249.92 34.5993 1247.76 33.8613C1245.6 33.1233 1243.17 32.7543 1240.47 32.7543C1237.71 32.7543 1235.33 33.0513 1233.31 33.6453C1231.32 34.2393 1229.66 35.0763 1228.35 36.1563C1227.05 37.2363 1226.08 38.5503 1225.43 40.0983C1224.8 41.6283 1224.48 43.3293 1224.48 45.2013H1213.55Z" fill="#2C2C2C"/>
<path d="M1317.84 24.4653H1328.91L1304.26 87.7533C1303.02 90.9213 1301.57 93.6573 1299.92 95.9613C1298.28 98.2653 1296.39 100.164 1294.25 101.658C1292.12 103.17 1289.74 104.286 1287.09 105.006C1284.46 105.726 1281.54 106.086 1278.32 106.086C1277.43 106.086 1276.58 106.059 1275.75 106.005C1274.92 105.951 1274.12 105.87 1273.35 105.762V96.2313C1274.3 96.3393 1275.18 96.4203 1275.99 96.4743C1276.82 96.5463 1277.61 96.5823 1278.37 96.5823C1280.17 96.5823 1281.8 96.4113 1283.26 96.0693C1284.71 95.7273 1286.02 95.1963 1287.17 94.4763C1288.32 93.7563 1289.32 92.8383 1290.17 91.7223C1291.01 90.6063 1291.72 89.2833 1292.27 87.7533L1294.35 82.1913L1293.89 88.0503L1269.41 24.4653H1280.75L1301.56 80.4363H1296.78L1317.84 24.4653Z" fill="#2C2C2C"/>
<path d="M15.2557 132.465V192H4.3207V132.465H15.2557ZM15.5257 112.08V125.58H4.0507V112.08H15.5257Z" fill="#2C2C2C"/>
<path d="M33.7929 159.789V192H22.8579V132.465H33.7929V149.961L33.7119 150.015C34.4139 147.027 35.4309 144.354 36.7629 141.996C38.1129 139.62 39.7329 137.613 41.6229 135.975C43.5309 134.319 45.6819 133.05 48.0759 132.168C50.4879 131.286 53.0889 130.845 55.8789 130.845C59.2809 130.845 62.3229 131.484 65.0049 132.762C67.6869 134.04 69.9549 135.885 71.8089 138.297C73.6629 140.691 75.0849 143.616 76.0749 147.072C77.0649 150.51 77.5599 154.389 77.5599 158.709V192H66.6249V158.709C66.6249 155.721 66.3099 153.111 65.6799 150.879C65.0499 148.629 64.0959 146.757 62.8179 145.263C61.5399 143.751 59.9469 142.617 58.0389 141.861C56.1309 141.105 53.8989 140.727 51.3429 140.727C49.5069 140.727 47.7969 140.925 46.2129 141.321C44.6469 141.699 43.2069 142.257 41.8929 142.995C40.5969 143.733 39.4449 144.651 38.4369 145.749C37.4289 146.829 36.5829 148.08 35.8989 149.502C35.2149 150.906 34.6929 152.472 34.3329 154.2C33.9729 155.91 33.7929 157.773 33.7929 159.789Z" fill="#2C2C2C"/>
<path d="M120.589 191.541C118.285 192.243 116.107 192.756 114.055 193.08C112.021 193.422 110.095 193.593 108.277 193.593C105.307 193.593 102.679 193.134 100.393 192.216C98.1254 191.316 96.2174 189.975 94.6694 188.193C93.1214 186.393 91.9424 184.17 91.1324 181.524C90.3404 178.86 89.9445 175.782 89.9445 172.29V118.749H100.879V172.317C100.879 174.297 101.059 176.016 101.419 177.474C101.797 178.914 102.355 180.111 103.093 181.065C103.849 182.001 104.803 182.703 105.955 183.171C107.125 183.639 108.511 183.873 110.113 183.873C111.373 183.873 112.858 183.729 114.568 183.441C116.278 183.153 118.285 182.703 120.589 182.091V191.541ZM120.589 141.645H81.8445V132.465H120.589V141.645Z" fill="#2C2C2C"/>
<path d="M488.296 191.541C485.992 192.243 483.814 192.756 481.762 193.08C479.728 193.422 477.802 193.593 475.984 193.593C473.014 193.593 470.386 193.134 468.1 192.216C465.832 191.316 463.924 189.975 462.376 188.193C460.828 186.393 459.649 184.17 458.839 181.524C458.047 178.86 457.651 175.782 457.651 172.29V118.749H468.586V172.317C468.586 174.297 468.766 176.016 469.126 177.474C469.504 178.914 470.062 180.111 470.8 181.065C471.556 182.001 472.51 182.703 473.662 183.171C474.832 183.639 476.218 183.873 477.82 183.873C479.08 183.873 480.565 183.729 482.275 183.441C483.985 183.153 485.992 182.703 488.296 182.091V191.541ZM488.296 141.645H449.551V132.465H488.296V141.645Z" fill="#2C2C2C"/>
<path d="M505.863 159.789V192H494.928V112.08H505.863V149.961L505.782 150.015C506.484 147.027 507.501 144.354 508.833 141.996C510.183 139.62 511.803 137.613 513.693 135.975C515.601 134.319 517.752 133.05 520.146 132.168C522.558 131.286 525.159 130.845 527.949 130.845C531.351 130.845 534.393 131.484 537.075 132.762C539.757 134.04 542.025 135.885 543.879 138.297C545.733 140.691 547.155 143.616 548.145 147.072C549.135 150.51 549.63 154.389 549.63 158.709V192H538.695V158.709C538.695 155.721 538.38 153.111 537.75 150.879C537.12 148.629 536.166 146.757 534.888 145.263C533.61 143.751 532.017 142.617 530.109 141.861C528.201 141.105 525.969 140.727 523.413 140.727C521.577 140.727 519.867 140.925 518.283 141.321C516.717 141.699 515.277 142.257 513.963 142.995C512.667 143.733 511.515 144.651 510.507 145.749C509.499 146.829 508.653 148.08 507.969 149.502C507.285 150.906 506.763 152.472 506.403 154.2C506.043 155.91 505.863 157.773 505.863 159.789Z" fill="#2C2C2C"/>
<path d="M566.503 162.435C566.503 165.711 566.935 168.663 567.799 171.291C568.663 173.919 569.896 176.16 571.498 178.014C573.118 179.85 575.071 181.263 577.357 182.253C579.661 183.243 582.244 183.738 585.106 183.738C587.068 183.738 588.877 183.495 590.533 183.009C592.189 182.523 593.683 181.803 595.015 180.849C596.365 179.877 597.553 178.68 598.579 177.258C599.623 175.818 600.505 174.153 601.225 172.263H612.16C611.386 175.593 610.18 178.581 608.542 181.227C606.904 183.873 604.906 186.114 602.548 187.95C600.208 189.786 597.535 191.19 594.529 192.162C591.541 193.134 588.31 193.62 584.836 193.62C580.444 193.62 576.448 192.864 572.848 191.352C569.266 189.84 566.188 187.707 563.614 184.953C561.058 182.199 559.078 178.887 557.674 175.017C556.27 171.147 555.568 166.854 555.568 162.138C555.568 157.458 556.261 153.201 557.647 149.367C559.033 145.515 560.995 142.221 563.533 139.485C566.071 136.731 569.113 134.607 572.659 133.113C576.223 131.601 580.165 130.845 584.485 130.845C588.751 130.845 592.603 131.583 596.041 133.059C599.479 134.517 602.413 136.596 604.843 139.296C607.273 141.996 609.145 145.263 610.459 149.097C611.773 152.931 612.43 157.224 612.43 161.976C612.43 162.66 612.412 163.344 612.376 164.028C612.358 164.694 612.313 165.423 612.241 166.215H564.181V156.765H607.084L601.306 166.134C601.36 165.522 601.396 164.892 601.414 164.244C601.45 163.596 601.468 162.948 601.468 162.3C601.468 158.844 601.09 155.784 600.334 153.12C599.596 150.438 598.507 148.179 597.067 146.343C595.627 144.507 593.854 143.112 591.748 142.158C589.66 141.204 587.257 140.727 584.539 140.727C581.749 140.727 579.238 141.222 577.006 142.212C574.792 143.202 572.902 144.624 571.336 146.478C569.788 148.332 568.591 150.582 567.745 153.228C566.917 155.874 566.503 158.844 566.503 162.138V162.435Z" fill="#2C2C2C"/>
<path d="M680.758 132.465H693.853L709.081 184.818H708.919L723.931 132.465H735.001L717.37 192H701.98L687.076 142.266H687.265L672.361 192H656.971L639.34 132.465H650.68L665.719 184.818H665.53L680.758 132.465Z" fill="#2C2C2C"/>
<path d="M746.989 162.435C746.989 165.711 747.421 168.663 748.285 171.291C749.149 173.919 750.382 176.16 751.984 178.014C753.604 179.85 755.557 181.263 757.843 182.253C760.147 183.243 762.73 183.738 765.592 183.738C767.554 183.738 769.363 183.495 771.019 183.009C772.675 182.523 774.169 181.803 775.501 180.849C776.851 179.877 778.039 178.68 779.065 177.258C780.109 175.818 780.991 174.153 781.711 172.263H792.646C791.872 175.593 790.666 178.581 789.028 181.227C787.39 183.873 785.392 186.114 783.034 187.95C780.694 189.786 778.021 191.19 775.015 192.162C772.027 193.134 768.796 193.62 765.322 193.62C760.93 193.62 756.934 192.864 753.334 191.352C749.752 189.84 746.674 187.707 744.1 184.953C741.544 182.199 739.564 178.887 738.16 175.017C736.756 171.147 736.054 166.854 736.054 162.138C736.054 157.458 736.747 153.201 738.133 149.367C739.519 145.515 741.481 142.221 744.019 139.485C746.557 136.731 749.599 134.607 753.145 133.113C756.709 131.601 760.651 130.845 764.971 130.845C769.237 130.845 773.089 131.583 776.527 133.059C779.965 134.517 782.899 136.596 785.329 139.296C787.759 141.996 789.631 145.263 790.945 149.097C792.259 152.931 792.916 157.224 792.916 161.976C792.916 162.66 792.898 163.344 792.862 164.028C792.844 164.694 792.799 165.423 792.727 166.215H744.667V156.765H787.57L781.792 166.134C781.846 165.522 781.882 164.892 781.9 164.244C781.936 163.596 781.954 162.948 781.954 162.3C781.954 158.844 781.576 155.784 780.82 153.12C780.082 150.438 778.993 148.179 777.553 146.343C776.113 144.507 774.34 143.112 772.234 142.158C770.146 141.204 767.743 140.727 765.025 140.727C762.235 140.727 759.724 141.222 757.492 142.212C755.278 143.202 753.388 144.624 751.822 146.478C750.274 148.332 749.077 150.582 748.231 153.228C747.403 155.874 746.989 158.844 746.989 162.138V162.435Z" fill="#2C2C2C"/>
<path d="M810.013 112.08V151.122L809.932 151.149C810.688 148.053 811.75 145.254 813.118 142.752C814.504 140.25 816.142 138.117 818.032 136.353C819.94 134.589 822.082 133.23 824.458 132.276C826.834 131.322 829.381 130.845 832.099 130.845C834.547 130.845 836.869 131.196 839.065 131.898C841.261 132.6 843.286 133.608 845.14 134.922C847.012 136.218 848.695 137.802 850.189 139.674C851.701 141.546 852.979 143.643 854.023 145.965C855.067 148.287 855.868 150.816 856.426 153.552C857.002 156.288 857.29 159.177 857.29 162.219C857.29 165.261 857.002 168.15 856.426 170.886C855.868 173.622 855.067 176.16 854.023 178.5C852.979 180.822 851.701 182.919 850.189 184.791C848.695 186.645 847.012 188.229 845.14 189.543C843.286 190.857 841.261 191.865 839.065 192.567C836.869 193.269 834.547 193.62 832.099 193.62C829.381 193.62 826.834 193.143 824.458 192.189C822.082 191.235 819.94 189.876 818.032 188.112C816.142 186.348 814.504 184.215 813.118 181.713C811.75 179.193 810.688 176.385 809.932 173.289L810.013 173.343V192H799.078V112.08H810.013ZM810.013 162.219C810.013 164.487 810.202 166.602 810.58 168.564C810.958 170.508 811.507 172.29 812.227 173.91C812.947 175.53 813.838 176.97 814.9 178.23C815.962 179.472 817.168 180.525 818.518 181.389C819.886 182.235 821.389 182.883 823.027 183.333C824.683 183.783 826.465 184.008 828.373 184.008C831.289 184.008 833.863 183.54 836.095 182.604C838.327 181.65 840.199 180.255 841.711 178.419C843.241 176.565 844.393 174.288 845.167 171.588C845.959 168.87 846.355 165.747 846.355 162.219C846.355 158.691 845.959 155.577 845.167 152.877C844.393 150.159 843.25 147.882 841.738 146.046C840.226 144.21 838.345 142.824 836.095 141.888C833.863 140.934 831.289 140.457 828.373 140.457C826.465 140.457 824.683 140.682 823.027 141.132C821.389 141.582 819.886 142.239 818.518 143.103C817.168 143.949 815.962 145.002 814.9 146.262C813.838 147.504 812.947 148.935 812.227 150.555C811.507 152.157 810.958 153.939 810.58 155.901C810.202 157.845 810.013 159.951 810.013 162.219Z" fill="#2C2C2C"/>
<path d="M2.9707 270.219C2.9707 267.087 3.2857 264.135 3.9157 261.363C4.5457 258.591 5.4547 256.044 6.6427 253.722C7.8307 251.4 9.2707 249.321 10.9627 247.485C12.6727 245.631 14.6077 244.065 16.7677 242.787C18.9277 241.509 21.2857 240.537 23.8417 239.871C26.4157 239.187 29.1607 238.845 32.0767 238.845C34.9927 238.845 37.7287 239.187 40.2847 239.871C42.8587 240.537 45.2257 241.509 47.3857 242.787C49.5457 244.065 51.4717 245.631 53.1637 247.485C54.8737 249.321 56.3227 251.4 57.5107 253.722C58.6987 256.044 59.6077 258.591 60.2377 261.363C60.8677 264.135 61.1827 267.087 61.1827 270.219C61.1827 273.351 60.8677 276.303 60.2377 279.075C59.6077 281.847 58.6987 284.403 57.5107 286.743C56.3227 289.065 54.8737 291.144 53.1637 292.98C51.4537 294.816 49.5187 296.382 47.3587 297.678C45.2167 298.956 42.8587 299.928 40.2847 300.594C37.7287 301.278 34.9927 301.62 32.0767 301.62C29.1607 301.62 26.4157 301.278 23.8417 300.594C21.2857 299.928 18.9277 298.956 16.7677 297.678C14.6257 296.382 12.6997 294.816 10.9897 292.98C9.2797 291.144 7.8307 289.065 6.6427 286.743C5.4547 284.403 4.5457 281.847 3.9157 279.075C3.2857 276.303 2.9707 273.351 2.9707 270.219ZM13.9057 270.219C13.9057 273.549 14.3197 276.546 15.1477 279.21C15.9937 281.856 17.1997 284.106 18.7657 285.96C20.3497 287.814 22.2667 289.245 24.5167 290.253C26.7667 291.243 29.2957 291.738 32.1037 291.738C34.9117 291.738 37.4317 291.243 39.6637 290.253C41.9137 289.263 43.8217 287.841 45.3877 285.987C46.9537 284.115 48.1507 281.856 48.9787 279.21C49.8247 276.546 50.2477 273.549 50.2477 270.219C50.2477 266.889 49.8247 263.901 48.9787 261.255C48.1507 258.591 46.9537 256.332 45.3877 254.478C43.8217 252.624 41.9137 251.202 39.6637 250.212C37.4317 249.222 34.9117 248.727 32.1037 248.727C29.2957 248.727 26.7667 249.222 24.5167 250.212C22.2667 251.202 20.3497 252.624 18.7657 254.478C17.1997 256.332 15.9937 258.591 15.1477 261.255C14.3197 263.901 13.9057 266.889 13.9057 270.219Z" fill="#2C2C2C"/>
<path d="M72.8796 300V239.115C72.8796 235.443 73.3386 232.203 74.2566 229.395C75.1746 226.569 76.5246 224.211 78.3066 222.321C80.1066 220.431 82.3296 219 84.9756 218.028C87.6216 217.056 90.6816 216.57 94.1556 216.57C95.6496 216.57 97.1886 216.66 98.7726 216.84C100.375 217.002 102.04 217.263 103.768 217.623V227.073C102.184 226.749 100.726 226.506 99.3936 226.344C98.0616 226.182 96.8196 226.101 95.6676 226.101C93.5976 226.101 91.7796 226.371 90.2136 226.911C88.6656 227.451 87.3786 228.261 86.3526 229.341C85.3266 230.421 84.5526 231.78 84.0306 233.418C83.5266 235.038 83.2746 236.937 83.2746 239.115V245.298H83.8146V300H72.8796ZM103.795 240.465V249.645H63.8346V240.465H103.795Z" fill="#2C2C2C"/>
<path d="M170.134 299.541C167.83 300.243 165.652 300.756 163.6 301.08C161.566 301.422 159.64 301.593 157.822 301.593C154.852 301.593 152.224 301.134 149.938 300.216C147.67 299.316 145.762 297.975 144.214 296.193C142.666 294.393 141.487 292.17 140.677 289.524C139.885 286.86 139.489 283.782 139.489 280.29V226.749H150.424V280.317C150.424 282.297 150.604 284.016 150.964 285.474C151.342 286.914 151.9 288.111 152.638 289.065C153.394 290.001 154.348 290.703 155.5 291.171C156.67 291.639 158.056 291.873 159.658 291.873C160.918 291.873 162.403 291.729 164.113 291.441C165.823 291.153 167.83 290.703 170.134 290.091V299.541ZM170.134 249.645H131.389V240.465H170.134V249.645Z" fill="#2C2C2C"/>
<path d="M172.991 270.219C172.991 267.087 173.306 264.135 173.936 261.363C174.566 258.591 175.475 256.044 176.663 253.722C177.851 251.4 179.291 249.321 180.983 247.485C182.693 245.631 184.628 244.065 186.788 242.787C188.948 241.509 191.306 240.537 193.862 239.871C196.436 239.187 199.181 238.845 202.097 238.845C205.013 238.845 207.749 239.187 210.305 239.871C212.879 240.537 215.246 241.509 217.406 242.787C219.566 244.065 221.492 245.631 223.184 247.485C224.894 249.321 226.343 251.4 227.531 253.722C228.719 256.044 229.628 258.591 230.258 261.363C230.888 264.135 231.203 267.087 231.203 270.219C231.203 273.351 230.888 276.303 230.258 279.075C229.628 281.847 228.719 284.403 227.531 286.743C226.343 289.065 224.894 291.144 223.184 292.98C221.474 294.816 219.539 296.382 217.379 297.678C215.237 298.956 212.879 299.928 210.305 300.594C207.749 301.278 205.013 301.62 202.097 301.62C199.181 301.62 196.436 301.278 193.862 300.594C191.306 299.928 188.948 298.956 186.788 297.678C184.646 296.382 182.72 294.816 181.01 292.98C179.3 291.144 177.851 289.065 176.663 286.743C175.475 284.403 174.566 281.847 173.936 279.075C173.306 276.303 172.991 273.351 172.991 270.219ZM183.926 270.219C183.926 273.549 184.34 276.546 185.168 279.21C186.014 281.856 187.22 284.106 188.786 285.96C190.37 287.814 192.287 289.245 194.537 290.253C196.787 291.243 199.316 291.738 202.124 291.738C204.932 291.738 207.452 291.243 209.684 290.253C211.934 289.263 213.842 287.841 215.408 285.987C216.974 284.115 218.171 281.856 218.999 279.21C219.845 276.546 220.268 273.549 220.268 270.219C220.268 266.889 219.845 263.901 218.999 261.255C218.171 258.591 216.974 256.332 215.408 254.478C213.842 252.624 211.934 251.202 209.684 250.212C207.452 249.222 204.932 248.727 202.124 248.727C199.316 248.727 196.787 249.222 194.537 250.212C192.287 251.202 190.37 252.624 188.786 254.478C187.22 256.332 186.014 258.591 185.168 261.255C184.34 263.901 183.926 266.889 183.926 270.219Z" fill="#2C2C2C"/>
<path d="M248.321 267.789V300H237.386V240.465H248.321V257.367L248.24 257.421C248.906 254.523 249.86 251.931 251.102 249.645C252.362 247.341 253.856 245.397 255.584 243.813C257.33 242.211 259.292 240.987 261.47 240.141C263.666 239.277 266.033 238.845 268.571 238.845C271.253 238.845 273.701 239.322 275.915 240.276C278.129 241.212 280.064 242.58 281.72 244.38C283.376 246.18 284.744 248.376 285.824 250.968C286.922 253.56 287.696 256.503 288.146 259.797L288.011 259.77C288.569 256.53 289.451 253.623 290.657 251.049C291.881 248.457 293.384 246.261 295.166 244.461C296.966 242.643 299.009 241.257 301.295 240.303C303.599 239.331 306.11 238.845 308.828 238.845C311.96 238.845 314.759 239.484 317.225 240.762C319.709 242.04 321.806 243.885 323.516 246.297C325.244 248.691 326.558 251.616 327.458 255.072C328.376 258.51 328.835 262.389 328.835 266.709V300H317.9V266.709C317.9 263.721 317.612 261.111 317.036 258.879C316.478 256.629 315.632 254.757 314.498 253.263C313.364 251.751 311.942 250.617 310.232 249.861C308.522 249.105 306.533 248.727 304.265 248.727C301.799 248.727 299.594 249.159 297.65 250.023C295.724 250.869 294.086 252.111 292.736 253.749C291.386 255.369 290.351 257.367 289.631 259.743C288.929 262.101 288.578 264.783 288.578 267.789V300H277.643V266.709C277.643 263.721 277.355 261.111 276.779 258.879C276.221 256.629 275.375 254.757 274.241 253.263C273.107 251.751 271.685 250.617 269.975 249.861C268.265 249.105 266.276 248.727 264.008 248.727C261.542 248.727 259.337 249.159 257.393 250.023C255.467 250.869 253.829 252.111 252.479 253.749C251.129 255.369 250.094 257.367 249.374 259.743C248.672 262.101 248.321 264.783 248.321 267.789Z" fill="#2C2C2C"/>
<path d="M334.729 270.219C334.729 267.087 335.044 264.135 335.674 261.363C336.304 258.591 337.213 256.044 338.401 253.722C339.589 251.4 341.029 249.321 342.721 247.485C344.431 245.631 346.366 244.065 348.526 242.787C350.686 241.509 353.044 240.537 355.6 239.871C358.174 239.187 360.919 238.845 363.835 238.845C366.751 238.845 369.487 239.187 372.043 239.871C374.617 240.537 376.984 241.509 379.144 242.787C381.304 244.065 383.23 245.631 384.922 247.485C386.632 249.321 388.081 251.4 389.269 253.722C390.457 256.044 391.366 258.591 391.996 261.363C392.626 264.135 392.941 267.087 392.941 270.219C392.941 273.351 392.626 276.303 391.996 279.075C391.366 281.847 390.457 284.403 389.269 286.743C388.081 289.065 386.632 291.144 384.922 292.98C383.212 294.816 381.277 296.382 379.117 297.678C376.975 298.956 374.617 299.928 372.043 300.594C369.487 301.278 366.751 301.62 363.835 301.62C360.919 301.62 358.174 301.278 355.6 300.594C353.044 299.928 350.686 298.956 348.526 297.678C346.384 296.382 344.458 294.816 342.748 292.98C341.038 291.144 339.589 289.065 338.401 286.743C337.213 284.403 336.304 281.847 335.674 279.075C335.044 276.303 334.729 273.351 334.729 270.219ZM345.664 270.219C345.664 273.549 346.078 276.546 346.906 279.21C347.752 281.856 348.958 284.106 350.524 285.96C352.108 287.814 354.025 289.245 356.275 290.253C358.525 291.243 361.054 291.738 363.862 291.738C366.67 291.738 369.19 291.243 371.422 290.253C373.672 289.263 375.58 287.841 377.146 285.987C378.712 284.115 379.909 281.856 380.737 279.21C381.583 276.546 382.006 273.549 382.006 270.219C382.006 266.889 381.583 263.901 380.737 261.255C379.909 258.591 378.712 256.332 377.146 254.478C375.58 252.624 373.672 251.202 371.422 250.212C369.19 249.222 366.67 248.727 363.862 248.727C361.054 248.727 358.525 249.222 356.275 250.212C354.025 251.202 352.108 252.624 350.524 254.478C348.958 256.332 347.752 258.591 346.906 261.255C346.078 263.901 345.664 266.889 345.664 270.219Z" fill="#2C2C2C"/>
<path d="M410.059 270.489V300H399.124V240.465H410.059V259.77L409.978 259.797C410.644 256.791 411.625 254.091 412.921 251.697C414.235 249.303 415.855 247.278 417.781 245.622C419.725 243.948 421.975 242.67 424.531 241.788C427.087 240.906 429.949 240.465 433.117 240.465H435.817V250.887H433.144C428.788 250.887 425.134 251.292 422.182 252.102C419.23 252.894 416.854 254.1 415.054 255.72C413.272 257.34 411.994 259.383 411.22 261.849C410.446 264.297 410.059 267.177 410.059 270.489Z" fill="#2C2C2C"/>
<path d="M452.854 270.489V300H441.919V240.465H452.854V259.77L452.773 259.797C453.439 256.791 454.42 254.091 455.716 251.697C457.03 249.303 458.65 247.278 460.576 245.622C462.52 243.948 464.77 242.67 467.326 241.788C469.882 240.906 472.744 240.465 475.912 240.465H478.612V250.887H475.939C471.583 250.887 467.929 251.292 464.977 252.102C462.025 252.894 459.649 254.1 457.849 255.72C456.067 257.34 454.789 259.383 454.015 261.849C453.241 264.297 452.854 267.177 452.854 270.489Z" fill="#2C2C2C"/>
<path d="M480.938 270.219C480.938 267.087 481.253 264.135 481.883 261.363C482.513 258.591 483.422 256.044 484.61 253.722C485.798 251.4 487.238 249.321 488.93 247.485C490.64 245.631 492.575 244.065 494.735 242.787C496.895 241.509 499.253 240.537 501.809 239.871C504.383 239.187 507.128 238.845 510.044 238.845C512.96 238.845 515.696 239.187 518.252 239.871C520.826 240.537 523.193 241.509 525.353 242.787C527.513 244.065 529.439 245.631 531.131 247.485C532.841 249.321 534.29 251.4 535.478 253.722C536.666 256.044 537.575 258.591 538.205 261.363C538.835 264.135 539.15 267.087 539.15 270.219C539.15 273.351 538.835 276.303 538.205 279.075C537.575 281.847 536.666 284.403 535.478 286.743C534.29 289.065 532.841 291.144 531.131 292.98C529.421 294.816 527.486 296.382 525.326 297.678C523.184 298.956 520.826 299.928 518.252 300.594C515.696 301.278 512.96 301.62 510.044 301.62C507.128 301.62 504.383 301.278 501.809 300.594C499.253 299.928 496.895 298.956 494.735 297.678C492.593 296.382 490.667 294.816 488.957 292.98C487.247 291.144 485.798 289.065 484.61 286.743C483.422 284.403 482.513 281.847 481.883 279.075C481.253 276.303 480.938 273.351 480.938 270.219ZM491.873 270.219C491.873 273.549 492.287 276.546 493.115 279.21C493.961 281.856 495.167 284.106 496.733 285.96C498.317 287.814 500.234 289.245 502.484 290.253C504.734 291.243 507.263 291.738 510.071 291.738C512.879 291.738 515.399 291.243 517.631 290.253C519.881 289.263 521.789 287.841 523.355 285.987C524.921 284.115 526.118 281.856 526.946 279.21C527.792 276.546 528.215 273.549 528.215 270.219C528.215 266.889 527.792 263.901 526.946 261.255C526.118 258.591 524.921 256.332 523.355 254.478C521.789 252.624 519.881 251.202 517.631 250.212C515.399 249.222 512.879 248.727 510.071 248.727C507.263 248.727 504.734 249.222 502.484 250.212C500.234 251.202 498.317 252.624 496.733 254.478C495.167 256.332 493.961 258.591 493.115 261.255C492.287 263.901 491.873 266.889 491.873 270.219Z" fill="#2C2C2C"/>
<path d="M581.579 240.465H594.674L609.902 292.818H609.74L624.752 240.465H635.822L618.191 300H602.801L587.897 250.266H588.086L573.182 300H557.792L540.161 240.465H551.501L566.54 292.818H566.351L581.579 240.465Z" fill="#2C2C2C"/>
<mask id="mask0_977_12" style="mask-type:alpha" maskUnits="userSpaceOnUse" x="131" y="130" width="222" height="63">
<path d="M323.161 130.005L159.975 130C157.072 130 154.339 130.342 151.777 131.026C149.233 131.692 146.885 132.664 144.735 133.942C142.585 135.22 140.658 136.786 138.956 138.64C137.272 140.476 135.838 142.555 134.655 144.877C133.473 147.199 132.568 149.746 131.941 152.518C131.314 155.29 131 158.242 131 161.374C131 164.506 131.314 167.458 131.941 170.23C132.568 173.002 133.473 175.558 134.655 177.898C135.838 180.22 137.281 182.299 138.983 184.135C140.685 185.971 142.603 187.537 144.735 188.833C146.885 190.111 149.233 191.083 151.777 191.749C154.339 192.433 156.996 192.765 159.899 192.765H323.161C326.064 192.765 328.721 192.418 331.283 191.734C333.827 191.068 336.175 190.096 338.325 188.818C340.475 187.54 342.402 185.974 344.104 184.12C345.788 182.284 347.222 180.205 348.405 177.883C349.587 175.561 350.492 173.014 351.119 170.242C351.746 167.47 352.06 164.518 352.06 161.386C352.06 158.254 351.746 155.302 351.119 152.53C350.492 149.758 349.587 147.202 348.405 144.862C347.222 142.54 345.779 140.461 344.077 138.625C342.375 136.789 340.457 135.223 338.325 133.927C336.175 132.649 333.827 131.677 331.283 131.011C328.721 130.327 326.064 130.005 323.161 130.005Z" fill="#2C2C2C"/>
</mask>
<g mask="url(#mask0_977_12)">
<path d="M135.067 173.003L135.078 173.036L135.088 173.068C136.218 176.62 137.912 179.891 140.284 182.711L140.299 182.729L140.314 182.747C142.716 185.571 145.648 187.764 149.026 189.285L149.052 189.296L149.078 189.308C152.5 190.82 156.1 191.52 159.965 191.52H241.595H323.226C327.126 191.52 330.72 190.792 334.113 189.293C337.516 187.789 340.465 185.595 342.876 182.759L342.892 182.741L342.907 182.723C345.287 179.893 346.98 176.605 348.108 173.038L348.113 173.021L348.119 173.003C349.243 169.394 349.74 165.532 349.74 161.511C349.74 157.49 349.243 153.626 348.123 150.008L348.113 149.975L348.103 149.942C346.973 146.391 345.278 143.12 342.907 140.3L342.892 140.282L342.876 140.263C340.475 137.44 337.543 135.247 334.165 133.726L334.139 133.714L334.113 133.703C330.672 132.182 327.068 131.5 323.226 131.5H241.595H159.965C156.087 131.5 152.489 132.21 149.078 133.718L149.078 133.718C145.675 135.222 142.726 137.416 140.314 140.251L140.299 140.27L140.284 140.288C137.904 143.118 136.211 146.406 135.083 149.973L135.078 149.99L135.072 150.007C133.948 153.617 133.451 157.479 133.451 161.499C133.451 165.521 133.948 169.385 135.067 173.003Z" stroke="#2C2C2C" stroke-width="17"/>
</g>
</svg>
