<svg width="372" height="224" viewBox="0 0 372 224" fill="none" xmlns="http://www.w3.org/2000/svg">
<path d="M164 140.352V186.293L200.665 173.338C203.263 172.42 205 169.965 205 167.21V125.71L164 140.352Z" fill="white" stroke="white"/>
<path d="M107 69.3524V115.293L143.665 102.338C146.263 101.42 148 98.9646 148 96.2095V54.7095L107 69.3524Z" fill="white" stroke="white"/>
<path d="M233 63.3524V109.293L269.665 96.3382C272.263 95.4204 274 92.9646 274 90.2095V48.7095L233 63.3524Z" fill="white" stroke="white"/>
<path d="M165.75 110.863C164.298 110.327 162.702 110.327 161.25 110.863L122.965 124.992L163.5 139.469L204.035 124.992L165.75 110.863Z" stroke="white"/>
<path d="M108.686 40.3117C107.272 39.8068 105.728 39.8068 104.314 40.3117L65.9866 54L106.5 68.4691L147.013 54L108.686 40.3117Z" stroke="white"/>
<path d="M234.686 34.3117C233.272 33.8068 231.728 33.8068 230.314 34.3117L191.987 48L232.5 62.4691L273.013 48L234.686 34.3117Z" stroke="white"/>
<rect x="0.939693" width="162.352" height="180.563" rx="3.5" transform="matrix(0.939693 -0.34202 0.939693 0.34202 24.4707 128.779)" stroke="white"/>
<rect x="0.939693" width="78.2213" height="78.5621" rx="3.5" transform="matrix(0.939693 -0.34202 0.939693 0.34202 189.787 152.826)" stroke="white"/>
<path d="M106 69.3524V115.293L69.3346 102.338C66.7369 101.42 65 98.9646 65 96.2095V54.7095L106 69.3524Z" fill="#1E1E1E" stroke="white"/>
<path d="M232 63.3524V109.293L195.335 96.3382C192.737 95.4204 191 92.9646 191 90.2095V48.7095L232 63.3524Z" fill="#1E1E1E" stroke="white"/>
<path d="M163 140.352V186.293L126.335 173.338C123.737 172.42 122 169.965 122 167.21V125.71L163 140.352Z" fill="#1E1E1E" stroke="white"/>
</svg>
