<svg width="323" height="286" viewBox="0 0 323 286" fill="none" xmlns="http://www.w3.org/2000/svg">
<path d="M298 118.339V164.266L317.881 156.441C320.366 155.463 322 153.064 322 150.393V108.739L298 118.339Z" fill="white" stroke="white"/>
<path d="M27.8402 1.38302C26.3386 0.836969 24.6884 0.863154 23.2049 1.45658L1.90192 9.97775L297.492 117.465L321.098 108.022L27.8402 1.38302Z" stroke="white"/>
<path d="M297 118.35V164.287L13.8448 61.4739C6.13404 58.6741 1 51.348 1 43.1447V10.7138L297 118.35Z" fill="#1E1E1E" stroke="white"/>
<path d="M53 43.7284C53 41.2953 55.4214 39.6045 57.7056 40.4426L237.706 106.488C239.084 106.994 240 108.306 240 109.774V131.274C240 133.707 237.58 135.398 235.296 134.561L55.296 68.6136C53.9169 68.1084 53 66.7959 53 65.3273V43.7284Z" fill="#1E1E1E" stroke="white"/>
<path d="M54.5 98.7284C54.5 95.9477 57.2673 94.0154 59.8779 94.9732L239.878 161.019C241.453 161.596 242.5 163.096 242.5 164.774V186.274C242.5 189.054 239.734 190.987 237.124 190.03L57.124 124.083C55.5479 123.506 54.5 122.006 54.5 120.327V98.7284Z" fill="#1E1E1E"/>
<path d="M55 98.7284C55 96.2953 57.4214 94.6045 59.7056 95.4426L239.706 161.488C241.084 161.994 242 163.306 242 164.774V186.274C242 188.707 239.58 190.398 237.296 189.561L57.296 123.614C55.9169 123.108 55 121.796 55 120.327V98.7284Z" stroke="white" stroke-opacity="0.5"/>
<path d="M38 142.728C38 140.295 40.4214 138.604 42.7056 139.443L222.706 205.488C224.084 205.994 225 207.306 225 208.774V230.274C225 232.707 222.58 234.398 220.296 233.561L40.296 167.614C38.9169 167.108 38 165.796 38 164.327V142.728Z" fill="#1E1E1E" stroke="white"/>
<path d="M54.5 192.728C54.5 189.948 57.2673 188.015 59.8779 188.973L239.878 255.019C241.453 255.596 242.5 257.096 242.5 258.774V280.274C242.5 283.054 239.734 284.987 237.124 284.03L57.124 218.083C55.5479 217.506 54.5 216.006 54.5 214.327V192.728Z" fill="#1E1E1E"/>
<path d="M55 192.728C55 190.295 57.4214 188.604 59.7056 189.443L239.706 255.488C241.084 255.994 242 257.306 242 258.774V280.274C242 282.707 239.58 284.398 237.296 283.561L57.296 217.614C55.9169 217.108 55 215.796 55 214.327V192.728Z" stroke="white" stroke-opacity="0.5"/>
<path d="M24.0175 49.7362C28.1694 51.2473 31.5351 48.8906 31.5351 44.4723C31.5351 40.054 28.1694 35.2473 24.0175 33.7362C19.8657 32.225 16.5 34.5817 16.5 39C16.5 43.4183 19.8657 48.225 24.0175 49.7362Z" stroke="white" stroke-width="3" stroke-linecap="round" stroke-linejoin="round"/>
<path d="M21.8379 49.7625C25.9897 51.2737 29.3554 48.917 29.3554 44.4987C29.3554 40.0804 25.9897 35.2737 21.8379 33.7625C17.686 32.2514 14.3203 34.6081 14.3203 39.0264C14.3203 43.4446 17.686 48.2514 21.8379 49.7625Z" stroke="white" stroke-width="3" stroke-linecap="round" stroke-linejoin="round"/>
<path d="M31.2321 55.1828L27.1914 49.4121" stroke="white" stroke-width="3" stroke-linecap="round" stroke-linejoin="round"/>
<path d="M33.5407 54.7707L29.5 49" stroke="white" stroke-width="3" stroke-linecap="round" stroke-linejoin="round"/>
<path d="M21.8379 49.7625C25.9897 51.2737 29.3554 48.917 29.3554 44.4987C29.3554 40.0804 25.9897 35.2737 21.8379 33.7625C17.686 32.2514 14.3203 34.6081 14.3203 39.0264C14.3203 43.4446 17.686 48.2514 21.8379 49.7625Z" stroke="#1E1E1E" stroke-width="2" stroke-linecap="round" stroke-linejoin="round"/>
<path d="M31.2321 55.1828L27.1914 49.4121" stroke="#1E1E1E" stroke-width="2" stroke-linecap="round" stroke-linejoin="round"/>
<g clip-path="url(#clip0_1043_732)">
<path d="M256.665 224.304L240.624 235.537L233.332 225.123" stroke="white" stroke-width="4.65578" stroke-linecap="round" stroke-linejoin="round"/>
<path d="M259.769 224.304L243.727 235.537L236.436 225.123" stroke="white" stroke-width="4.65578" stroke-linecap="round" stroke-linejoin="round"/>
<path d="M256.665 224.304L240.624 235.537L233.332 225.123" stroke="#1E1E1E" stroke-width="3.10385" stroke-linecap="round" stroke-linejoin="round"/>
</g>
<defs>
<clipPath id="clip0_1043_732">
<rect width="37.2462" height="37.2462" fill="white" transform="matrix(0.939693 0.34202 0 1 227.5 204.377)"/>
</clipPath>
</defs>
</svg>
