<svg width="724" height="114" viewBox="0 0 724 114" fill="none" xmlns="http://www.w3.org/2000/svg">
<path d="M52.2331 25.7101H63.8154L41.4701 88H23.673L1.55372 25.7101H13.4185L33.8993 84.2711H31.5263L52.2331 25.7101ZM75.7922 57.0669C75.7922 60.4945 76.2442 63.5831 77.1482 66.3327C78.0522 69.0823 79.3422 71.427 81.0183 73.3668C82.7133 75.2878 84.7567 76.7662 87.1485 77.802C89.5591 78.8378 92.2616 79.3557 95.256 79.3557C97.3088 79.3557 99.2015 79.1014 100.934 78.593C102.667 78.0845 104.23 77.3312 105.624 76.333C107.036 75.316 108.279 74.0636 109.352 72.5758C110.445 71.0692 111.368 69.3272 112.121 67.3497H123.562C122.752 70.8338 121.49 73.9601 119.776 76.7285C118.063 79.4969 115.972 81.8416 113.505 83.7626C111.057 85.6836 108.26 87.1525 105.115 88.1695C101.989 89.1865 98.6083 89.695 94.9735 89.695C90.3783 89.695 86.1974 88.904 82.4308 87.322C78.6831 85.74 75.4626 83.5083 72.7695 80.6269C70.0952 77.7455 68.0236 74.2802 66.5547 70.2311C65.0857 66.1821 64.3512 61.6904 64.3512 56.7562C64.3512 51.8596 65.0763 47.4056 66.5264 43.3942C67.9765 39.364 70.0293 35.9176 72.6848 33.055C75.3402 30.1735 78.523 27.9512 82.2331 26.3881C85.962 24.8061 90.0864 24.0152 94.6063 24.0152C99.0697 24.0152 103.1 24.7873 106.697 26.3316C110.294 27.8571 113.364 30.0323 115.906 32.8572C118.449 35.6821 120.407 39.1003 121.782 43.1117C123.157 47.1231 123.844 51.6148 123.844 56.5867C123.844 57.3023 123.826 58.018 123.788 58.7336C123.769 59.4305 123.722 60.1932 123.647 61.0218H73.3628V51.1346H118.251L112.206 60.9371C112.262 60.2968 112.3 59.6376 112.319 58.9596C112.356 58.2817 112.375 57.6037 112.375 56.9257C112.375 53.3098 111.98 50.1082 111.189 47.3209C110.417 44.5148 109.277 42.1513 107.771 40.2303C106.264 38.3093 104.409 36.8498 102.205 35.8516C100.021 34.8535 97.5066 34.3544 94.6628 34.3544C91.7437 34.3544 89.1165 34.8723 86.7812 35.9081C84.4648 36.944 82.4873 38.4318 80.8488 40.3715C79.2292 42.3113 77.9768 44.6654 77.0917 47.4339C76.2254 50.2023 75.7922 53.3098 75.7922 56.7562V57.0669ZM142.862 54.2985V88H131.421V25.7101H142.862V44.0157L142.778 44.0722C143.512 40.9459 144.576 38.1493 145.97 35.6821C147.382 33.1962 149.077 31.0963 151.055 29.3825C153.051 27.6499 155.302 26.3222 157.806 25.3994C160.33 24.4766 163.051 24.0152 165.97 24.0152C169.53 24.0152 172.713 24.6837 175.519 26.0209C178.325 27.358 180.698 29.2884 182.638 31.812C184.577 34.3168 186.065 37.3771 187.101 40.993C188.137 44.5901 188.655 48.6486 188.655 53.1685V88H177.214V53.1685C177.214 50.0422 176.884 47.3115 176.225 44.9762C175.566 42.6221 174.568 40.6635 173.23 39.1003C171.893 37.5184 170.227 36.3319 168.23 35.5409C166.234 34.7499 163.899 34.3544 161.225 34.3544C159.304 34.3544 157.514 34.5616 155.857 34.9759C154.219 35.3714 152.712 35.9552 151.337 36.7274C149.981 37.4995 148.776 38.46 147.721 39.6088C146.667 40.7388 145.782 42.0477 145.066 43.5355C144.35 45.0044 143.804 46.6429 143.427 48.4509C143.051 50.24 142.862 52.1892 142.862 54.2985ZM207.439 57.0669C207.439 60.4945 207.891 63.5831 208.795 66.3327C209.699 69.0823 210.989 71.427 212.665 73.3668C214.36 75.2878 216.403 76.7662 218.795 77.802C221.206 78.8378 223.908 79.3557 226.903 79.3557C228.955 79.3557 230.848 79.1014 232.581 78.593C234.313 78.0845 235.876 77.3312 237.27 76.333C238.683 75.316 239.926 74.0636 240.999 72.5758C242.091 71.0692 243.014 69.3272 243.767 67.3497H255.208C254.399 70.8338 253.137 73.9601 251.423 76.7285C249.709 79.4969 247.619 81.8416 245.152 83.7626C242.703 85.6836 239.907 87.1525 236.762 88.1695C233.635 89.1865 230.255 89.695 226.62 89.695C222.025 89.695 217.844 88.904 214.077 87.322C210.33 85.74 207.109 83.5083 204.416 80.6269C201.742 77.7455 199.67 74.2802 198.201 70.2311C196.732 66.1821 195.998 61.6904 195.998 56.7562C195.998 51.8596 196.723 47.4056 198.173 43.3942C199.623 39.364 201.676 35.9176 204.331 33.055C206.987 30.1735 210.169 27.9512 213.88 26.3881C217.608 24.8061 221.733 24.0152 226.253 24.0152C230.716 24.0152 234.746 24.7873 238.344 26.3316C241.941 27.8571 245.01 30.0323 247.553 32.8572C250.095 35.6821 252.054 39.1003 253.429 43.1117C254.804 47.1231 255.491 51.6148 255.491 56.5867C255.491 57.3023 255.472 58.018 255.434 58.7336C255.416 59.4305 255.369 60.1932 255.293 61.0218H205.009V51.1346H249.898L243.852 60.9371C243.909 60.2968 243.946 59.6376 243.965 58.9596C244.003 58.2817 244.022 57.6037 244.022 56.9257C244.022 53.3098 243.626 50.1082 242.835 47.3209C242.063 44.5148 240.924 42.1513 239.417 40.2303C237.91 38.3093 236.055 36.8498 233.852 35.8516C231.667 34.8535 229.153 34.3544 226.309 34.3544C223.39 34.3544 220.763 34.8723 218.428 35.9081C216.111 36.944 214.134 38.4318 212.495 40.3715C210.876 42.3113 209.623 44.6654 208.738 47.4339C207.872 50.2023 207.439 53.3098 207.439 56.7562V57.0669ZM274.509 4.38183V88H263.068V4.38183H274.509ZM321.871 87.5198C319.46 88.2542 317.181 88.791 315.034 89.13C312.906 89.4878 310.891 89.6667 308.989 89.6667C305.882 89.6667 303.132 89.1865 300.74 88.226C298.367 87.2843 296.371 85.8813 294.751 84.0168C293.132 82.1335 291.898 79.8077 291.051 77.0392C290.222 74.252 289.808 71.0315 289.808 67.378V11.3594H301.249V67.4062C301.249 69.4778 301.437 71.2764 301.814 72.8018C302.209 74.3085 302.793 75.5609 303.565 76.559C304.356 77.5383 305.354 78.2728 306.56 78.7625C307.784 79.2521 309.234 79.4969 310.91 79.4969C312.228 79.4969 313.782 79.3463 315.571 79.0449C317.36 78.7436 319.46 78.2728 321.871 77.6325V87.5198ZM321.871 35.3149H281.333V25.7101H321.871V35.3149ZM380.631 24.0152C384.869 24.0152 388.635 24.4954 391.931 25.4559C395.246 26.4163 398.033 27.7912 400.293 29.5803C402.572 31.3506 404.295 33.5069 405.462 36.0494C406.649 38.573 407.242 41.4074 407.242 44.5525H396.084C396.084 42.9517 395.745 41.5015 395.067 40.202C394.408 38.8837 393.419 37.7632 392.101 36.8404C390.801 35.8987 389.191 35.1737 387.27 34.6652C385.349 34.1567 383.136 33.9024 380.631 33.9024C378.39 33.9024 376.337 34.1096 374.473 34.5239C372.608 34.9382 371.008 35.5315 369.671 36.3036C368.333 37.0569 367.298 37.9703 366.563 39.0438C365.829 40.0985 365.461 41.2755 365.461 42.575C365.461 43.5543 365.669 44.4112 366.083 45.1457C366.497 45.8802 367.062 46.5299 367.778 47.0949C368.493 47.6411 369.332 48.1119 370.292 48.5074C371.252 48.884 372.279 49.2136 373.371 49.4961C374.482 49.7786 375.631 50.0234 376.818 50.2306C378.004 50.4189 379.172 50.6072 380.321 50.7956L384.473 51.4453C386.225 51.7278 388.051 52.048 389.954 52.4058C391.875 52.7448 393.758 53.1968 395.603 53.7618C397.468 54.3267 399.238 55.0518 400.914 55.937C402.609 56.8033 404.088 57.8956 405.349 59.2139C406.63 60.5322 407.647 62.1142 408.4 63.9598C409.173 65.8054 409.559 67.9806 409.559 70.4854C409.559 73.5551 408.956 76.2859 407.751 78.6777C406.545 81.0507 404.766 83.0564 402.412 84.6948C400.057 86.3333 397.148 87.5763 393.682 88.4237C390.217 89.2712 386.215 89.695 381.677 89.695C376.949 89.695 372.806 89.2336 369.247 88.3107C365.687 87.3879 362.721 86.032 360.348 84.2428C357.975 82.4537 356.186 80.2597 354.981 77.6607C353.794 75.043 353.201 72.0391 353.201 68.6492H364.36C364.36 70.4383 364.708 72.0297 365.405 73.4233C366.102 74.7981 367.166 75.9658 368.597 76.9262C370.028 77.8679 371.827 78.5835 373.993 79.0732C376.158 79.5629 378.71 79.8077 381.648 79.8077C384.304 79.8077 386.667 79.6099 388.739 79.2144C390.81 78.819 392.562 78.2351 393.993 77.463C395.425 76.6908 396.517 75.7492 397.27 74.638C398.023 73.5081 398.4 72.218 398.4 70.7679C398.4 69.6191 398.174 68.6209 397.722 67.7734C397.289 66.926 396.686 66.1821 395.914 65.5417C395.161 64.9014 394.257 64.3553 393.202 63.9033C392.166 63.4325 391.036 63.0275 389.812 62.6886C388.588 62.3496 387.308 62.0577 385.97 61.8128C384.652 61.568 383.315 61.3232 381.959 61.0783L377.806 60.3721C376.224 60.1084 374.548 59.8071 372.778 59.4681C371.008 59.1291 369.247 58.6866 367.495 58.1404C365.763 57.5942 364.096 56.9163 362.495 56.1064C360.913 55.2966 359.51 54.2891 358.286 53.0838C357.081 51.8596 356.111 50.4189 355.376 48.7616C354.661 47.0855 354.303 45.108 354.303 42.8292C354.303 39.9666 354.906 37.3771 356.111 35.0607C357.335 32.7442 359.077 30.7668 361.337 29.1283C363.616 27.4898 366.375 26.228 369.614 25.3429C372.872 24.4577 376.545 24.0152 380.631 24.0152ZM454.952 87.5198C452.541 88.2542 450.262 88.791 448.116 89.13C445.987 89.4878 443.972 89.6667 442.07 89.6667C438.963 89.6667 436.213 89.1865 433.821 88.226C431.448 87.2843 429.452 85.8813 427.832 84.0168C426.213 82.1335 424.979 79.8077 424.132 77.0392C423.303 74.252 422.889 71.0315 422.889 67.378V11.3594H434.33V67.4062C434.33 69.4778 434.518 71.2764 434.895 72.8018C435.29 74.3085 435.874 75.5609 436.646 76.559C437.437 77.5383 438.435 78.2728 439.641 78.7625C440.865 79.2521 442.315 79.4969 443.991 79.4969C445.309 79.4969 446.863 79.3463 448.652 79.0449C450.441 78.7436 452.541 78.2728 454.952 77.6325V87.5198ZM454.952 35.3149H414.414V25.7101H454.952V35.3149ZM508.53 59.4116V25.7101H519.971V88H508.53V69.6944L508.615 69.6379C507.881 72.7642 506.807 75.5703 505.395 78.0562C504.001 80.5233 502.306 82.6232 500.31 84.3558C498.332 86.0696 496.082 87.3879 493.558 88.3107C491.053 89.2336 488.341 89.695 485.422 89.695C481.863 89.695 478.68 89.0264 475.874 87.6893C473.068 86.3521 470.695 84.4312 468.755 81.9264C466.815 79.4028 465.328 76.3424 464.292 72.7453C463.256 69.1294 462.738 65.0615 462.738 60.5416V25.7101H474.179V60.5416C474.179 63.6679 474.509 66.4081 475.168 68.7622C475.827 71.0975 476.825 73.0561 478.162 74.638C479.499 76.2012 481.166 77.3782 483.162 78.1692C485.159 78.9602 487.494 79.3557 490.168 79.3557C492.089 79.3557 493.869 79.1579 495.507 78.7625C497.165 78.3481 498.671 77.7549 500.027 76.9827C501.402 76.2106 502.617 75.2595 503.671 74.1296C504.726 72.9807 505.611 71.6719 506.327 70.2029C507.043 68.7151 507.589 67.0766 507.965 65.2875C508.342 63.4795 508.53 61.5209 508.53 59.4116ZM577.062 4.38183H588.503V88H577.062V68.4797L577.146 68.4232C576.355 71.6624 575.235 74.6004 573.785 77.237C572.353 79.8548 570.64 82.0865 568.643 83.9321C566.666 85.7777 564.434 87.1996 561.948 88.1977C559.462 89.1959 556.797 89.695 553.954 89.695C551.392 89.695 548.963 89.3277 546.665 88.5932C544.368 87.8588 542.239 86.8041 540.281 85.4293C538.341 84.0545 536.58 82.3972 534.998 80.4574C533.435 78.4988 532.107 76.3048 531.015 73.8753C529.923 71.427 529.075 68.7716 528.473 65.909C527.889 63.0464 527.597 60.0237 527.597 56.8409C527.597 53.6582 527.889 50.6355 528.473 47.7729C529.075 44.9103 529.923 42.2643 531.015 39.8348C532.107 37.4054 533.435 35.2113 534.998 33.2527C536.58 31.2941 538.341 29.6368 540.281 28.2808C542.239 26.906 544.368 25.8514 546.665 25.1169C548.963 24.3824 551.392 24.0152 553.954 24.0152C556.797 24.0152 559.462 24.5142 561.948 25.5124C564.434 26.5105 566.666 27.9324 568.643 29.778C570.64 31.6237 572.353 33.8554 573.785 36.4731C575.235 39.0909 576.355 42.0194 577.146 45.2587L577.062 45.2304V4.38183ZM577.062 56.8409C577.062 54.468 576.864 52.2645 576.468 50.2306C576.073 48.1778 575.498 46.3133 574.745 44.6372C573.992 42.9422 573.06 41.445 571.948 40.1455C570.837 38.8272 569.566 37.7255 568.135 36.8404C566.722 35.9364 565.15 35.249 563.417 34.7782C561.703 34.3073 559.848 34.0719 557.852 34.0719C554.801 34.0719 552.099 34.571 549.744 35.5691C547.409 36.5485 545.45 37.9986 543.869 39.9196C542.287 41.8405 541.081 44.2229 540.253 47.0666C539.443 49.8916 539.038 53.1497 539.038 56.8409C539.038 60.5322 539.443 63.7997 540.253 66.6435C541.081 69.4684 542.287 71.8508 543.869 73.7906C545.469 75.7115 547.437 77.1711 549.773 78.1692C552.108 79.1485 554.801 79.6382 557.852 79.6382C559.848 79.6382 561.703 79.4028 563.417 78.9319C565.15 78.4611 566.722 77.7831 568.135 76.898C569.566 75.994 570.837 74.8923 571.948 73.5928C573.06 72.2745 573.992 70.7679 574.745 69.0729C575.498 67.378 576.073 65.5135 576.468 63.4795C576.864 61.4267 577.062 59.2139 577.062 56.8409ZM608.977 25.7101V88H597.536V25.7101H608.977ZM609.26 4.38183V18.5065H597.254V4.38183H609.26ZM616.649 56.8409C616.649 53.564 616.978 50.4754 617.637 47.5751C618.297 44.6749 619.248 42.01 620.491 39.5806C621.734 37.1511 623.24 34.9759 625.01 33.055C626.8 31.1152 628.824 29.4767 631.084 28.1396C633.344 26.8024 635.811 25.7854 638.485 25.0886C641.179 24.373 644.051 24.0152 647.101 24.0152C650.152 24.0152 653.015 24.373 655.689 25.0886C658.382 25.7854 660.859 26.8024 663.119 28.1396C665.379 29.4767 667.394 31.1152 669.164 33.055C670.953 34.9759 672.469 37.1511 673.712 39.5806C674.955 42.01 675.906 44.6749 676.566 47.5751C677.225 50.4754 677.554 53.564 677.554 56.8409C677.554 60.1179 677.225 63.2065 676.566 66.1067C675.906 69.007 674.955 71.6813 673.712 74.1296C672.469 76.559 670.953 78.7342 669.164 80.6552C667.375 82.5761 665.351 84.2146 663.091 85.5706C660.849 86.9077 658.382 87.9247 655.689 88.6215C653.015 89.3371 650.152 89.695 647.101 89.695C644.051 89.695 641.179 89.3371 638.485 88.6215C635.811 87.9247 633.344 86.9077 631.084 85.5706C628.843 84.2146 626.828 82.5761 625.039 80.6552C623.25 78.7342 621.734 76.559 620.491 74.1296C619.248 71.6813 618.297 69.007 617.637 66.1067C616.978 63.2065 616.649 60.1179 616.649 56.8409ZM628.09 56.8409C628.09 60.325 628.523 63.4607 629.389 66.248C630.274 69.0164 631.536 71.3705 633.175 73.3103C634.832 75.2501 636.838 76.7473 639.192 77.802C641.546 78.8378 644.192 79.3557 647.13 79.3557C650.068 79.3557 652.704 78.8378 655.04 77.802C657.394 76.7662 659.39 75.2784 661.028 73.3386C662.667 71.3799 663.919 69.0164 664.786 66.248C665.671 63.4607 666.113 60.325 666.113 56.8409C666.113 53.3568 665.671 50.2306 664.786 47.4621C663.919 44.6749 662.667 42.3113 661.028 40.3715C659.39 38.4318 657.394 36.944 655.04 35.9081C652.704 34.8723 650.068 34.3544 647.13 34.3544C644.192 34.3544 641.546 34.8723 639.192 35.9081C636.838 36.944 634.832 38.4318 633.175 40.3715C631.536 42.3113 630.274 44.6749 629.389 47.4621C628.523 50.2306 628.09 53.3568 628.09 56.8409Z" fill="white"/>
<rect width="26.0261" height="26.0261" transform="translate(697.973 61.5161)" fill="#FFB901"/>
<circle cx="710.986" cy="74.5292" r="13.0131" fill="#FFB901"/>
</svg>
