<svg width="356" height="63" viewBox="0 0 356 63" fill="none" xmlns="http://www.w3.org/2000/svg">
<g filter="url(#filter0_d_1522_481)">
<path d="M35.0965 19.8524H40.4397L30.1312 48.5884H21.921L11.7168 19.8524H17.1903L26.6386 46.8681H25.5439L35.0965 19.8524ZM45.9649 34.3181C45.9649 35.8994 46.1734 37.3242 46.5905 38.5927C47.0075 39.8612 47.6026 40.9428 48.3759 41.8377C49.1578 42.7239 50.1005 43.4059 51.2038 43.8838C52.3159 44.3616 53.5627 44.6005 54.9441 44.6005C55.8911 44.6005 56.7642 44.4832 57.5635 44.2487C58.3629 44.0141 59.084 43.6666 59.7269 43.2061C60.3785 42.7369 60.9519 42.1592 61.4471 41.4728C61.951 40.7778 62.3768 39.9741 62.7243 39.0619H68.0023C67.6287 40.6692 67.0466 42.1114 66.256 43.3885C65.4654 44.6657 64.501 45.7474 63.3629 46.6336C62.2334 47.5197 60.9432 48.1974 59.4923 48.6666C58.0501 49.1357 56.4906 49.3703 54.8138 49.3703C52.6939 49.3703 50.7651 49.0054 49.0275 48.2756C47.2985 47.5458 45.8129 46.5163 44.5705 45.187C43.3368 43.8577 42.3811 42.2591 41.7034 40.3911C41.0257 38.5232 40.6869 36.4511 40.6869 34.1748C40.6869 31.9159 41.0214 29.8611 41.6904 28.0106C42.3593 26.1513 43.3063 24.5614 44.5314 23.2408C45.7564 21.9115 47.2247 20.8863 48.9362 20.1652C50.6565 19.4354 52.5592 19.0705 54.6443 19.0705C56.7034 19.0705 58.5627 19.4267 60.2221 20.1391C61.8815 20.8429 63.2977 21.8464 64.4706 23.1496C65.6435 24.4528 66.5471 26.0297 67.1813 27.8803C67.8155 29.7308 68.1326 31.8029 68.1326 34.0966C68.1326 34.4268 68.124 34.7569 68.1066 35.087C68.0979 35.4085 68.0762 35.7604 68.0414 36.1427H44.8441V31.5814H65.5523L62.7634 36.1036C62.7894 35.8082 62.8068 35.5041 62.8155 35.1913C62.8329 34.8785 62.8416 34.5658 62.8416 34.253C62.8416 32.5849 62.6591 31.1079 62.2942 29.822C61.938 28.5275 61.4124 27.4372 60.7173 26.551C60.0223 25.6648 59.1665 24.9915 58.15 24.531C57.1422 24.0705 55.9823 23.8403 54.6704 23.8403C53.3237 23.8403 52.1118 24.0792 51.0344 24.5571C49.9658 25.0349 49.0535 25.7213 48.2977 26.6161C47.5505 27.511 46.9727 28.597 46.5644 29.8742C46.1647 31.1513 45.9649 32.5849 45.9649 34.1748V34.3181ZM76.9061 33.041V48.5884H71.6281V19.8524H76.9061V28.2973L76.867 28.3233C77.2059 26.8811 77.6968 25.5909 78.3397 24.4528C78.9913 23.306 79.7732 22.3372 80.6855 21.5466C81.6064 20.7473 82.6446 20.1348 83.8002 19.7091C84.9644 19.2834 86.2198 19.0705 87.5665 19.0705C89.2085 19.0705 90.6768 19.3789 91.9713 19.9958C93.2659 20.6126 94.3606 21.5032 95.2554 22.6674C96.1503 23.8229 96.8367 25.2347 97.3145 26.9028C97.7924 28.5623 98.0313 30.4346 98.0313 32.5197V48.5884H92.7533V32.5197C92.7533 31.0775 92.6012 29.8177 92.2971 28.7404C91.9931 27.6544 91.5326 26.7508 90.9157 26.0297C90.2989 25.2999 89.53 24.7525 88.609 24.3876C87.6881 24.0227 86.6108 23.8403 85.3771 23.8403C84.4909 23.8403 83.6655 23.9359 82.9009 24.127C82.1451 24.3094 81.45 24.5788 80.8158 24.935C80.1903 25.2912 79.6342 25.7343 79.1477 26.2643C78.6611 26.7856 78.2528 27.3894 77.9227 28.0757C77.5925 28.7534 77.3405 29.5093 77.1668 30.3433C76.993 31.1687 76.9061 32.0679 76.9061 33.041ZM106.697 34.3181C106.697 35.8994 106.905 37.3242 107.322 38.5927C107.739 39.8612 108.335 40.9428 109.108 41.8377C109.89 42.7239 110.832 43.4059 111.936 43.8838C113.048 44.3616 114.295 44.6005 115.676 44.6005C116.623 44.6005 117.496 44.4832 118.296 44.2487C119.095 44.0141 119.816 43.6666 120.459 43.2061C121.11 42.7369 121.684 42.1592 122.179 41.4728C122.683 40.7778 123.109 39.9741 123.456 39.0619H128.734C128.361 40.6692 127.779 42.1114 126.988 43.3885C126.197 44.6657 125.233 45.7474 124.095 46.6336C122.965 47.5197 121.675 48.1974 120.224 48.6666C118.782 49.1357 117.223 49.3703 115.546 49.3703C113.426 49.3703 111.497 49.0054 109.759 48.2756C108.031 47.5458 106.545 46.5163 105.302 45.187C104.069 43.8577 103.113 42.2591 102.435 40.3911C101.758 38.5232 101.419 36.4511 101.419 34.1748C101.419 31.9159 101.753 29.8611 102.422 28.0106C103.091 26.1513 104.038 24.5614 105.263 23.2408C106.488 21.9115 107.957 20.8863 109.668 20.1652C111.388 19.4354 113.291 19.0705 115.376 19.0705C117.435 19.0705 119.295 19.4267 120.954 20.1391C122.614 20.8429 124.03 21.8464 125.203 23.1496C126.375 24.4528 127.279 26.0297 127.913 27.8803C128.547 29.7308 128.865 31.8029 128.865 34.0966C128.865 34.4268 128.856 34.7569 128.839 35.087C128.83 35.4085 128.808 35.7604 128.773 36.1427H105.576V31.5814H126.284L123.495 36.1036C123.521 35.8082 123.539 35.5041 123.547 35.1913C123.565 34.8785 123.574 34.5658 123.574 34.253C123.574 32.5849 123.391 31.1079 123.026 29.822C122.67 28.5275 122.144 27.4372 121.449 26.551C120.754 25.6648 119.898 24.9915 118.882 24.531C117.874 24.0705 116.714 23.8403 115.402 23.8403C114.056 23.8403 112.844 24.0792 111.766 24.5571C110.698 25.0349 109.786 25.7213 109.03 26.6161C108.282 27.511 107.705 28.597 107.296 29.8742C106.897 31.1513 106.697 32.5849 106.697 34.1748V34.3181ZM137.638 10.0131V48.5884H132.36V10.0131H137.638ZM159.487 48.3668C158.375 48.7057 157.324 48.9533 156.334 49.1097C155.352 49.2747 154.422 49.3573 153.545 49.3573C152.111 49.3573 150.843 49.1357 149.739 48.6926C148.645 48.2582 147.724 47.611 146.976 46.7508C146.229 45.882 145.66 44.809 145.269 43.5319C144.887 42.2461 144.696 40.7604 144.696 39.0749V13.2321H149.974V39.0879C149.974 40.0436 150.061 40.8733 150.235 41.5771C150.417 42.2721 150.686 42.8499 151.043 43.3103C151.407 43.7621 151.868 44.101 152.424 44.3269C152.989 44.5527 153.658 44.6657 154.431 44.6657C155.039 44.6657 155.756 44.5962 156.581 44.4572C157.407 44.3182 158.375 44.101 159.487 43.8056V48.3668ZM159.487 24.2834H140.786V19.8524H159.487V24.2834ZM186.595 19.0705C188.55 19.0705 190.288 19.2921 191.808 19.7351C193.337 20.1782 194.623 20.8125 195.665 21.6378C196.717 22.4545 197.512 23.4493 198.05 24.6222C198.598 25.7864 198.871 27.094 198.871 28.5449H193.724C193.724 27.8064 193.567 27.1374 193.255 26.5379C192.95 25.9298 192.494 25.4128 191.886 24.9871C191.287 24.5527 190.544 24.2182 189.658 23.9836C188.771 23.7491 187.751 23.6318 186.595 23.6318C185.561 23.6318 184.614 23.7273 183.754 23.9185C182.894 24.1096 182.155 24.3833 181.539 24.7395C180.922 25.087 180.444 25.5084 180.105 26.0036C179.766 26.4902 179.597 27.0332 179.597 27.6326C179.597 28.0844 179.692 28.4797 179.884 28.8186C180.075 29.1574 180.335 29.4571 180.665 29.7178C180.996 29.9697 181.382 30.1869 181.825 30.3694C182.268 30.5432 182.742 30.6952 183.246 30.8255C183.758 30.9558 184.288 31.0688 184.836 31.1644C185.383 31.2512 185.922 31.3381 186.452 31.425L188.367 31.7247C189.175 31.8551 190.018 32.0028 190.896 32.1678C191.782 32.3242 192.651 32.5327 193.502 32.7934C194.362 33.054 195.179 33.3885 195.952 33.7969C196.734 34.1965 197.416 34.7004 197.998 35.3086C198.589 35.9168 199.058 36.6466 199.406 37.498C199.762 38.3494 199.94 39.3529 199.94 40.5084C199.94 41.9246 199.662 43.1844 199.106 44.2878C198.55 45.3825 197.729 46.3077 196.643 47.0636C195.557 47.8195 194.215 48.3929 192.616 48.7839C191.017 49.1748 189.171 49.3703 187.077 49.3703C184.897 49.3703 182.985 49.1575 181.343 48.7317C179.701 48.306 178.333 47.6805 177.238 46.8551C176.143 46.0297 175.318 45.0176 174.762 43.8186C174.215 42.611 173.941 41.2252 173.941 39.6613H179.089C179.089 40.4867 179.249 41.2209 179.571 41.8638C179.892 42.498 180.383 43.0367 181.043 43.4798C181.704 43.9142 182.533 44.2443 183.533 44.4702C184.532 44.6961 185.709 44.809 187.064 44.809C188.289 44.809 189.38 44.7178 190.335 44.5354C191.291 44.3529 192.099 44.0836 192.759 43.7274C193.42 43.3712 193.924 42.9368 194.271 42.4242C194.619 41.9029 194.792 41.3077 194.792 40.6388C194.792 40.1088 194.688 39.6483 194.48 39.2573C194.28 38.8664 194.002 38.5232 193.645 38.2278C193.298 37.9324 192.881 37.6804 192.394 37.4719C191.917 37.2547 191.395 37.0679 190.831 36.9116C190.266 36.7552 189.675 36.6205 189.058 36.5076C188.45 36.3946 187.833 36.2817 187.208 36.1687L185.292 35.8429C184.562 35.7213 183.789 35.5823 182.972 35.4259C182.155 35.2695 181.343 35.0653 180.535 34.8134C179.736 34.5614 178.967 34.2486 178.228 33.8751C177.499 33.5015 176.851 33.0367 176.287 32.4806C175.731 31.9159 175.283 31.2512 174.944 30.4867C174.614 29.7134 174.449 28.8012 174.449 27.7499C174.449 26.4293 174.727 25.2347 175.283 24.1661C175.848 23.0974 176.652 22.1852 177.694 21.4293C178.745 20.6735 180.018 20.0914 181.513 19.683C183.016 19.2747 184.71 19.0705 186.595 19.0705ZM220.881 48.3668C219.769 48.7057 218.718 48.9533 217.727 49.1097C216.746 49.2747 215.816 49.3573 214.938 49.3573C213.505 49.3573 212.236 49.1357 211.133 48.6926C210.038 48.2582 209.117 47.611 208.37 46.7508C207.623 45.882 207.054 44.809 206.663 43.5319C206.281 42.2461 206.09 40.7604 206.09 39.0749V13.2321H211.368V39.0879C211.368 40.0436 211.455 40.8733 211.628 41.5771C211.811 42.2721 212.08 42.8499 212.436 43.3103C212.801 43.7621 213.262 44.101 213.818 44.3269C214.382 44.5527 215.051 44.6657 215.825 44.6657C216.433 44.6657 217.15 44.5962 217.975 44.4572C218.8 44.3182 219.769 44.101 220.881 43.8056V48.3668ZM220.881 24.2834H202.18V19.8524H220.881V24.2834ZM245.598 35.3998V19.8524H250.876V48.5884H245.598V40.1435L245.637 40.1175C245.299 41.5597 244.803 42.8542 244.152 44.0011C243.509 45.1392 242.727 46.1079 241.806 46.9072C240.894 47.6978 239.855 48.306 238.691 48.7317C237.536 49.1575 236.285 49.3703 234.938 49.3703C233.296 49.3703 231.828 49.0619 230.533 48.445C229.239 47.8282 228.144 46.942 227.249 45.7865C226.354 44.6223 225.668 43.2104 225.19 41.551C224.712 39.8829 224.473 38.0063 224.473 35.9211V19.8524H229.751V35.9211C229.751 37.3633 229.903 38.6275 230.207 39.7135C230.511 40.7908 230.972 41.6944 231.589 42.4242C232.206 43.1453 232.974 43.6883 233.895 44.0532C234.816 44.4181 235.894 44.6005 237.127 44.6005C238.014 44.6005 238.835 44.5093 239.59 44.3269C240.355 44.1357 241.05 43.862 241.676 43.5058C242.31 43.1496 242.87 42.7109 243.357 42.1896C243.843 41.6596 244.252 41.0558 244.582 40.3781C244.912 39.6917 245.164 38.9359 245.338 38.1105C245.511 37.2765 245.598 36.3729 245.598 35.3998ZM277.213 10.0131H282.492V48.5884H277.213V39.5831L277.253 39.5571C276.888 41.0514 276.371 42.4068 275.702 43.6231C275.041 44.8308 274.251 45.8603 273.33 46.7117C272.418 47.5632 271.388 48.2191 270.241 48.6796C269.094 49.1401 267.865 49.3703 266.553 49.3703C265.372 49.3703 264.251 49.2009 263.191 48.8621C262.131 48.5232 261.149 48.0367 260.246 47.4025C259.351 46.7682 258.538 46.0037 257.809 45.1088C257.087 44.2052 256.475 43.1931 255.971 42.0723C255.467 40.9428 255.076 39.7178 254.798 38.3972C254.529 37.0766 254.394 35.6822 254.394 34.2139C254.394 32.7456 254.529 31.3512 254.798 30.0306C255.076 28.71 255.467 27.4893 255.971 26.3685C256.475 25.2478 257.087 24.2356 257.809 23.332C258.538 22.4285 259.351 21.6639 260.246 21.0384C261.149 20.4041 262.131 19.9176 263.191 19.5788C264.251 19.2399 265.372 19.0705 266.553 19.0705C267.865 19.0705 269.094 19.3007 270.241 19.7612C271.388 20.2217 272.418 20.8776 273.33 21.7291C274.251 22.5805 275.041 23.61 275.702 24.8177C276.371 26.0253 276.888 27.3763 277.253 28.8707L277.213 28.8577V10.0131ZM277.213 34.2139C277.213 33.1192 277.122 32.1027 276.94 31.1644C276.757 30.2174 276.492 29.3572 276.145 28.584C275.797 27.8021 275.367 27.1114 274.855 26.5119C274.342 25.9037 273.756 25.3955 273.095 24.9871C272.444 24.5701 271.718 24.253 270.919 24.0358C270.128 23.8186 269.273 23.71 268.352 23.71C266.944 23.71 265.697 23.9402 264.611 24.4007C263.534 24.8524 262.63 25.5214 261.901 26.4076C261.171 27.2938 260.615 28.3929 260.233 29.7048C259.859 31.008 259.672 32.511 259.672 34.2139C259.672 35.9168 259.859 37.4241 260.233 38.7361C260.615 40.0393 261.171 41.1383 261.901 42.0332C262.639 42.9194 263.547 43.5927 264.624 44.0532C265.702 44.505 266.944 44.7309 268.352 44.7309C269.273 44.7309 270.128 44.6223 270.919 44.4051C271.718 44.1878 272.444 43.8751 273.095 43.4667C273.756 43.0497 274.342 42.5415 274.855 41.942C275.367 41.3338 275.797 40.6388 276.145 39.8568C276.492 39.0749 276.757 38.2148 276.94 37.2765C277.122 36.3294 277.213 35.3086 277.213 34.2139ZM291.937 19.8524V48.5884H286.659V19.8524H291.937ZM292.067 10.0131V16.5292H286.529V10.0131H292.067ZM295.476 34.2139C295.476 32.7022 295.628 31.2773 295.932 29.9393C296.236 28.6014 296.675 27.372 297.248 26.2512C297.822 25.1305 298.517 24.127 299.334 23.2408C300.159 22.3459 301.093 21.5901 302.135 20.9732C303.178 20.3563 304.316 19.8872 305.55 19.5657C306.792 19.2356 308.117 19.0705 309.525 19.0705C310.932 19.0705 312.253 19.2356 313.487 19.5657C314.729 19.8872 315.871 20.3563 316.914 20.9732C317.957 21.5901 318.886 22.3459 319.703 23.2408C320.528 24.127 321.228 25.1305 321.801 26.2512C322.374 27.372 322.813 28.6014 323.117 29.9393C323.421 31.2773 323.573 32.7022 323.573 34.2139C323.573 35.7256 323.421 37.1505 323.117 38.4884C322.813 39.8264 322.374 41.0601 321.801 42.1896C321.228 43.3103 320.528 44.3138 319.703 45.2C318.877 46.0862 317.944 46.8421 316.901 47.4676C315.867 48.0845 314.729 48.5536 313.487 48.8751C312.253 49.2052 310.932 49.3703 309.525 49.3703C308.117 49.3703 306.792 49.2052 305.55 48.8751C304.316 48.5536 303.178 48.0845 302.135 47.4676C301.102 46.8421 300.172 46.0862 299.347 45.2C298.521 44.3138 297.822 43.3103 297.248 42.1896C296.675 41.0601 296.236 39.8264 295.932 38.4884C295.628 37.1505 295.476 35.7256 295.476 34.2139ZM300.754 34.2139C300.754 35.8212 300.954 37.2678 301.354 38.5536C301.762 39.8308 302.344 40.9168 303.1 41.8116C303.864 42.7065 304.79 43.3972 305.876 43.8838C306.962 44.3616 308.182 44.6005 309.538 44.6005C310.893 44.6005 312.109 44.3616 313.187 43.8838C314.273 43.4059 315.194 42.7196 315.95 41.8247C316.705 40.9211 317.283 39.8308 317.683 38.5536C318.091 37.2678 318.295 35.8212 318.295 34.2139C318.295 32.6066 318.091 31.1644 317.683 29.8872C317.283 28.6014 316.705 27.511 315.95 26.6161C315.194 25.7213 314.273 25.0349 313.187 24.5571C312.109 24.0792 310.893 23.8403 309.538 23.8403C308.182 23.8403 306.962 24.0792 305.876 24.5571C304.79 25.0349 303.864 25.7213 303.1 26.6161C302.344 27.511 301.762 28.6014 301.354 29.8872C300.954 31.1644 300.754 32.6066 300.754 34.2139Z" fill="#202020"/>
<rect width="12.0065" height="12.0065" transform="translate(332.992 36.9673)" fill="#FFB901"/>
<circle cx="338.995" cy="42.9706" r="6.00327" fill="#FFB901"/>
</g>
<defs>
<filter id="filter0_d_1522_481" x="0" y="-0.566317" width="356" height="74.3921" filterUnits="userSpaceOnUse" color-interpolation-filters="sRGB">
<feFlood flood-opacity="0" result="BackgroundImageFix"/>
<feColorMatrix in="SourceAlpha" type="matrix" values="0 0 0 0 0 0 0 0 0 0 0 0 0 0 0 0 0 0 127 0" result="hardAlpha"/>
<feOffset dy="1.8453"/>
<feGaussianBlur stdDeviation="5.5"/>
<feComposite in2="hardAlpha" operator="out"/>
<feColorMatrix type="matrix" values="0 0 0 0 1 0 0 0 0 1 0 0 0 0 1 0 0 0 0.25 0"/>
<feBlend mode="normal" in2="BackgroundImageFix" result="effect1_dropShadow_1522_481"/>
<feBlend mode="normal" in="SourceGraphic" in2="effect1_dropShadow_1522_481" result="shape"/>
</filter>
</defs>
</svg>
