<svg width="175" height="186" viewBox="0 0 175 186" fill="none" xmlns="http://www.w3.org/2000/svg">
<path d="M34 12.792C34 12.0055 34.4609 11.2921 35.1778 10.9688L58.7505 0.337959C59.2307 0.121413 59.7769 0.103034 60.2705 0.286813L173.698 42.5152C174.481 42.8066 175 43.554 175 44.3895V161.341C175 167.155 171.406 172.365 165.97 174.429L144.955 182.409C138.859 184.725 132.13 184.755 126.013 182.495L48.3756 153.811C39.7366 150.619 34 142.384 34 133.175V12.792Z" fill="white"/>
<path d="M59.3116 5.08632C59.4317 5.03123 59.5688 5.02592 59.6928 5.07157L166.076 44.2277C166.494 44.3818 166.517 44.9654 166.111 45.1514L149.188 52.9139C149.067 52.969 148.93 52.9743 148.806 52.9287L42.4234 13.7725C42.0047 13.6184 41.9821 13.0348 42.3876 12.8488L59.3116 5.08632Z" fill="#222222"/>
<path d="M38 17.2842C38 17.1457 38.1372 17.0492 38.2675 17.0959L145.868 55.6858C145.947 55.7143 146 55.7896 146 55.874V169.827C146 177.45 138.434 182.762 131.264 180.173L52.529 151.746C43.8102 148.598 38 140.323 38 131.053V17.2842Z" fill="#222222"/>
<path d="M0 104.53C0 104.248 0.166703 103.992 0.426007 103.877L8.95231 100.063C9.12599 99.9858 9.32355 99.9792 9.5021 100.045L50.529 115.192C50.8122 115.296 51 115.564 51 115.864V157.812C51 159.898 49.7 161.766 47.7339 162.507L40.1327 165.369C37.9276 166.2 35.4938 166.21 33.2812 165.4L5.1997 155.112C2.07495 153.967 0 151.013 0 147.71V104.53Z" fill="white"/>
<path d="M9.15522 101.767C9.19869 101.747 9.24829 101.745 9.29317 101.761L48.0381 115.926C48.192 115.982 48.1969 116.196 48.0457 116.259L41.6615 118.925C41.6192 118.943 41.5718 118.944 41.5288 118.928L3.04675 104.882C2.89533 104.827 2.88716 104.618 3.03382 104.551L9.15522 101.767Z" fill="#222222"/>
<path d="M1.44681 106.142C1.44681 106.092 1.49644 106.057 1.54357 106.074L40.4627 119.916C40.4915 119.926 40.5106 119.953 40.5106 119.983V160.856C40.5106 163.59 37.7742 165.496 35.1808 164.567L6.70196 154.371C3.54838 153.242 1.44681 150.273 1.44681 146.949V106.142Z" fill="#222222"/>
<path d="M59 44.0445C59 42.94 59.8414 42.3508 60.8794 42.7286L100.442 57.1281C101.48 57.5059 102.321 58.7076 102.321 59.8122C102.321 60.9168 101.48 61.5059 100.442 61.1281L60.8794 46.7286C59.8414 46.3508 59 45.1491 59 44.0445Z" fill="white" fill-opacity="0.71"/>
<path d="M59.1641 107.024C59.1641 105.92 60.0055 105.33 61.0434 105.708L80.777 112.891C81.8149 113.268 82.6564 114.47 82.6564 115.575C82.6564 116.679 81.8149 117.268 80.777 116.891L61.0434 109.708C60.0055 109.33 59.1641 108.129 59.1641 107.024Z" fill="white" fill-opacity="0.71"/>
<path d="M89.2344 117.968C89.2344 116.864 90.0758 116.275 91.1138 116.653L110.847 123.835C111.885 124.213 112.727 125.414 112.727 126.519C112.727 127.624 111.885 128.213 110.847 127.835L91.1138 120.653C90.0758 120.275 89.2344 119.073 89.2344 117.968Z" fill="white" fill-opacity="0.25"/>
<path d="M109.839 136.548C109.839 135.444 110.68 134.855 111.718 135.232L128.633 141.389C129.671 141.767 130.512 142.968 130.512 144.073C130.512 145.177 129.671 145.767 128.633 145.389L111.718 139.232C110.68 138.855 109.839 137.653 109.839 136.548Z" fill="white" fill-opacity="0.25"/>
<path d="M54.3969 94.3692C54.3969 93.2646 55.2384 92.6754 56.2763 93.0532L72.2511 98.8675C73.289 99.2453 74.1305 100.447 74.1305 101.552C74.1305 102.656 73.289 103.245 72.2511 102.868L56.2763 97.0532C55.2384 96.6754 54.3969 95.4737 54.3969 94.3692Z" fill="white" fill-opacity="0.25"/>
<path d="M45 126.949C45 125.844 45.8414 125.255 46.8794 125.633L79.7686 137.604C80.8066 137.981 81.648 139.183 81.648 140.288C81.648 141.392 80.8066 141.981 79.7686 141.604L46.8794 129.633C45.8414 129.255 45 128.054 45 126.949Z" fill="white" fill-opacity="0.25"/>
<path d="M53.4572 137.027C53.4572 135.923 54.2987 135.333 55.3366 135.711L70.3717 141.183C71.4097 141.561 72.2511 142.763 72.2511 143.868C72.2511 144.972 71.4097 145.561 70.3717 145.183L55.3366 139.711C54.2987 139.333 53.4572 138.132 53.4572 137.027Z" fill="white" fill-opacity="0.25"/>
<path d="M75.0702 144.894C75.0702 143.789 75.9116 143.2 76.9495 143.578L99.5022 151.786C100.54 152.164 101.382 153.366 101.382 154.47C101.382 155.575 100.54 156.164 99.5022 155.786L76.9495 147.578C75.9116 147.2 75.0702 145.998 75.0702 144.894Z" fill="white" fill-opacity="0.25"/>
<path d="M104 155.949C104 154.844 104.841 154.255 105.879 154.633L118.121 159.088C119.159 159.466 120 160.668 120 161.772C120 162.877 119.159 163.466 118.121 163.088L105.879 158.633C104.841 158.255 104 157.054 104 155.949Z" fill="white" fill-opacity="0.25"/>
<path d="M82.5877 104.63C82.5877 103.525 83.4291 102.936 84.4671 103.314L100.442 109.128C101.48 109.506 102.321 110.708 102.321 111.812C102.321 112.917 101.48 113.506 100.442 113.128L84.4671 107.314C83.4291 106.936 82.5877 105.734 82.5877 104.63Z" fill="white" fill-opacity="0.71"/>
<path d="M95.7434 138.418C95.7434 137.313 96.5848 136.724 97.6228 137.102L108.899 141.206C109.937 141.584 110.778 142.786 110.778 143.89C110.778 144.995 109.937 145.584 108.899 145.206L97.6228 141.102C96.5848 140.724 95.7434 139.523 95.7434 138.418Z" fill="white" fill-opacity="0.71"/>
<path d="M45 119.949C45 118.844 45.8414 118.255 46.8794 118.633L90.1052 134.366C91.1432 134.744 91.9846 135.945 91.9846 137.05C91.9846 138.155 91.1432 138.744 90.1052 138.366L46.8794 122.633C45.8414 122.255 45 121.054 45 119.949Z" fill="white" fill-opacity="0.25"/>
<path d="M109.839 62.5483C109.839 61.4438 110.68 60.8546 111.718 61.2324L137.09 70.4669C138.128 70.8447 138.969 72.0464 138.969 73.151C138.969 74.2555 138.128 74.8447 137.09 74.4669L111.718 65.2324C110.68 64.8546 109.839 63.6529 109.839 62.5483Z" fill="white" fill-opacity="0.25"/>
<path d="M45 53.949C45 52.8444 45.8414 52.2552 46.8794 52.633L60.0351 57.4213C61.073 57.7991 61.9145 59.0007 61.9145 60.1053C61.9145 61.2099 61.073 61.7991 60.0351 61.4213L46.8794 56.633C45.8414 56.2552 45 55.0535 45 53.949Z" fill="white" fill-opacity="0.25"/>
<path d="M63.793 60.7898C63.793 59.6852 64.6344 59.096 65.6724 59.4738L82.5868 65.6302C83.6248 66.008 84.4662 67.2096 84.4662 68.3142C84.4662 69.4188 83.6248 70.008 82.5868 69.6302L65.6724 63.4738C64.6344 63.096 63.793 61.8943 63.793 60.7898Z" fill="white" fill-opacity="0.25"/>
<path d="M54.3984 74.3689C54.3984 73.2643 55.2399 72.6751 56.2778 73.0529L81.6495 82.2875C82.6875 82.6652 83.5289 83.8669 83.5289 84.9715C83.5289 86.0761 82.6875 86.6652 81.6495 86.2875L56.2778 77.0529C55.2399 76.6751 54.3984 75.4734 54.3984 74.3689Z" fill="white" fill-opacity="0.25"/>
<path d="M90.1055 70.3659C90.1055 69.2614 90.9469 68.6722 91.9849 69.05L115.477 77.6005C116.515 77.9783 117.357 79.18 117.357 80.2845C117.357 81.3891 116.515 81.9783 115.477 81.6005L91.9849 73.05C90.9469 72.6722 90.1055 71.4705 90.1055 70.3659Z" fill="white" fill-opacity="0.25"/>
<path d="M89.1641 87.0241C89.1641 85.9196 90.0055 85.3304 91.0434 85.7082L131.45 100.415C132.488 100.793 133.33 101.995 133.33 103.099C133.33 104.204 132.488 104.793 131.45 104.415L91.0434 89.7082C90.0055 89.3304 89.1641 88.1287 89.1641 87.0241Z" fill="white" fill-opacity="0.71"/>
<path d="M53.6382 37L48 40.9479L53.6382 49M127 168.948L132.638 165L127 156.948" stroke="white" stroke-width="4" stroke-linecap="round" stroke-linejoin="round"/>
</svg>
