<svg width="141" height="185" viewBox="0 0 141 185" fill="none" xmlns="http://www.w3.org/2000/svg">
<path d="M0 12.792C0 12.0055 0.460885 11.2921 1.17778 10.9688L24.7505 0.337959C25.2307 0.121413 25.7769 0.103034 26.2705 0.286813L139.698 42.5152C140.481 42.8066 141 43.554 141 44.3895V161.341C141 167.155 137.406 172.365 131.97 174.429L110.955 182.409C104.859 184.725 98.13 184.755 92.0128 182.495L14.3756 153.811C5.73662 150.619 0 142.384 0 133.175V12.792Z" fill="white"/>
<path d="M25.3115 5.08638C25.4317 5.03125 25.5688 5.02598 25.6929 5.07172L132.811 44.5617C133.237 44.7186 133.25 45.3156 132.832 45.4916L115.182 52.9234C115.065 52.9726 114.934 52.9756 114.815 52.9319L8.42337 13.7725C8.00473 13.6184 7.98214 13.0348 8.38762 12.8488L25.3115 5.08638Z" fill="#222222"/>
<path d="M4 17.2842C4 17.1457 4.13722 17.0492 4.26752 17.0959L111.868 55.6858C111.947 55.7143 112 55.7896 112 55.874V169.827C112 177.45 104.434 182.762 97.2645 180.173L18.529 151.746C9.81023 148.598 4 140.323 4 131.053V17.2842Z" fill="#222222"/>
</svg>
