<svg width="1615" height="791" viewBox="0 0 1615 791" fill="none" xmlns="http://www.w3.org/2000/svg">
<path d="M35 0.5H1579.5C1598.55 0.5 1614 15.9462 1614 35V597C1614 616.054 1598.55 631.5 1579.5 631.5H1308C1288.39 631.5 1272.5 647.394 1272.5 667V756C1272.5 775.054 1257.05 790.5 1238 790.5H216.309C197.255 790.5 181.809 775.054 181.809 756V735.306C181.809 715.699 165.915 699.806 146.309 699.806H125.655C106.601 699.806 91.1545 684.359 91.1545 665.306V644.611C91.1545 625.005 75.2607 609.111 55.6545 609.111H35C15.9462 609.111 0.5 593.665 0.5 574.611V35C0.5 15.9462 15.9462 0.5 35 0.5Z" stroke="#6B6B6B"/>
</svg>
