<svg width="1615" height="791" viewBox="0 0 1615 791" fill="none" xmlns="http://www.w3.org/2000/svg">
<path d="M0 35C0 15.67 15.67 0 35 0H1579.5C1598.83 0 1614.5 15.67 1614.5 35V597C1614.5 616.33 1598.83 632 1579.5 632H1308C1288.67 632 1273 647.67 1273 667V756C1273 775.33 1257.33 791 1238 791H216.309C196.979 791 181.309 775.33 181.309 756V735.306C181.309 715.976 165.639 700.306 146.309 700.306H125.655C106.325 700.306 90.6545 684.636 90.6545 665.306V644.611C90.6545 625.281 74.9845 609.611 55.6545 609.611H35C15.67 609.611 0 593.941 0 574.611V35Z" fill="white"/>
</svg>
