<svg width="2565" height="1293" viewBox="0 0 2565 1293" fill="none" xmlns="http://www.w3.org/2000/svg">
<mask id="path-1-outside-1_831_7" maskUnits="userSpaceOnUse" x="-525" y="-749" width="3615" height="2791" fill="black">
<rect fill="white" x="-525" y="-749" width="3615" height="2791"/>
<path d="M475 286C475 266.67 490.67 251 510 251H2054.5C2073.83 251 2089.5 266.67 2089.5 286V848C2089.5 867.33 2073.83 883 2054.5 883H1783C1763.67 883 1748 898.67 1748 918V1007C1748 1026.33 1732.33 1042 1713 1042H691.309C671.979 1042 656.309 1026.33 656.309 1007V986.306C656.309 966.976 640.639 951.306 621.309 951.306H600.655C581.325 951.306 565.655 935.635 565.655 916.306V895.611C565.655 876.281 549.985 860.611 530.655 860.611H510C490.67 860.611 475 844.941 475 825.611V286Z"/>
</mask>
<path d="M475 286C475 266.67 490.67 251 510 251H2054.5C2073.83 251 2089.5 266.67 2089.5 286V848C2089.5 867.33 2073.83 883 2054.5 883H1783C1763.67 883 1748 898.67 1748 918V1007C1748 1026.33 1732.33 1042 1713 1042H691.309C671.979 1042 656.309 1026.33 656.309 1007V986.306C656.309 966.976 640.639 951.306 621.309 951.306H600.655C581.325 951.306 565.655 935.635 565.655 916.306V895.611C565.655 876.281 549.985 860.611 530.655 860.611H510C490.67 860.611 475 844.941 475 825.611V286Z" stroke="#191A1B" stroke-width="2000" mask="url(#path-1-outside-1_831_7)"/>
</svg>
